{
.appVersion = "3227";
.formatVersion = 3;
DisplayStrings = (
"ȺȻTȾɆɃƗɈⱣɌƵɎ",
"abcdefghijklmnopqrstuvwxyz
ABCDEFGHIJKLMNOPQRSTUVWXYZ
012346789",
"æ"
);
axes = (
{
name = Weight;
tag = wght;
}
);
customParameters = (
{
name = blueScale;
value = 0.04;
},
{
name = blueShift;
value = 7;
},
{
name = blueFuzz;
value = 1;
},
{
name = TTFBlueFuzz;
value = 1;
},
{
name = fsType;
value = (
);
},
{
name = "Use Typo Metrics";
value = 1;
}
);
date = "2023-10-18 15:40:09 +0000";
familyName = "Festac 23";
featurePrefixes = (
{
automatic = 1;
code = "languagesystem DFLT dflt;

languagesystem latn dflt;
";
name = Languagesystems;
}
);
features = (
{
automatic = 1;
code = "feature ss01;
";
tag = aalt;
},
{
automatic = 1;
code = "lookup ccmp_latn_1 {
	sub fi by f i;
} ccmp_latn_1;

script latn;
lookup ccmp_latn_1;
";
tag = ccmp;
},
{
automatic = 1;
code = "lookupflag IgnoreMarks;
sub f f by f_f.liga;
sub t t by t_t.liga;
sub f i by fi;
";
tag = liga;
},
{
automatic = 1;
code = "sub t by t.ss01;
";
labels = (
{
language = dflt;
value = alt.t;
}
);
tag = ss01;
}
);
fontMaster = (
{
axesValues = (
173
);
customParameters = (
{
name = blueScale;
value = 0.04;
},
{
name = blueShift;
value = 7;
},
{
name = blueFuzz;
value = 1;
},
{
name = TTFBlueFuzz;
value = 1;
}
);
guides = (
{
locked = 1;
pos = (927,385);
},
{
locked = 1;
pos = (276,32);
},
{
locked = 1;
pos = (275,522);
}
);
iconName = SemiBold;
id = m01;
metricValues = (
{
over = 12;
pos = 830;
},
{
over = 12;
pos = 554;
},
{
over = 12;
pos = 400;
},
{
over = -12;
},
{
over = -12;
pos = -370;
}
);
name = Bold;
stemValues = (
120,
173
);
userData = {
GSExtrudeAngle = 30;
GSExtrudeOffset = 15;
};
}
);
glyphs = (
{
color = 9;
glyphname = A;
lastChange = "2023-11-15 15:28:51 +0000";
layers = (
{
anchors = (
{
name = bottom;
pos = (255,0);
},
{
name = center;
pos = (261,277);
},
{
name = oconnect;
pos = (179,0);
},
{
name = ogonek;
pos = (470,10);
},
{
name = top;
pos = (255,554);
}
);
layerId = m01;
shapes = (
{
closed = 1;
nodes = (
(453,0,l),
(474,101,o),
(482,201,o),
(482,269,cs),
(482,383,o),
(450,495,o),
(413,556,c),
(226,556,l),
(275,495,o),
(318,392,o),
(318,257,cs),
(318,182,o),
(309,99,o),
(278,0,c)
);
},
{
closed = 1;
nodes = (
(231,0,l),
(200,99,o),
(191,182,o),
(191,257,cs),
(191,392,o),
(239,495,o),
(288,556,c),
(96,556,l),
(59,495,o),
(27,383,o),
(27,269,cs),
(27,201,o),
(35,101,o),
(56,0,c)
);
},
{
closed = 1;
nodes = (
(441,214,l),
(441,314,l),
(60,314,l),
(60,214,l)
);
}
);
width = 509;
}
);
unicode = 65;
},
{
color = 3;
glyphname = B;
lastChange = "2023-11-15 15:25:54 +0000";
layers = (
{
anchors = (
{
name = bottom;
pos = (253,0);
},
{
name = center;
pos = (253,277);
},
{
name = stroke;
pos = (130,157);
},
{
name = top;
pos = (253,554);
}
);
background = {
shapes = (
{
closed = 1;
nodes = (
(424,0,l),
(449,32,o),
(481,94,o),
(479,160,cs),
(477,240,o),
(429,293,o),
(403,318,c),
(424,333,o),
(453,367,o),
(453,438,cs),
(453,510,o),
(423,541,o),
(406,554,c),
(196,554,l),
(196,531,l),
(224,525,o),
(280,494,o),
(280,429,cs),
(280,367,o),
(228,330,o),
(217,317,c),
(236,298,o),
(303,236,o),
(303,166,cs),
(303,97,o),
(239,41,o),
(206,25,c),
(206,0,l)
);
},
{
closed = 1;
nodes = (
(217,0,l),
(217,554,l),
(44,554,l),
(44,0,l)
);
}
);
};
layerId = m01;
shapes = (
{
closed = 1;
nodes = (
(420,-1,l),
(458,29,o),
(485,95,o),
(485,159,cs),
(485,229,o),
(452,290,o),
(399,317,c),
(438,339,o),
(462,384,o),
(462,435,cs),
(462,483,o),
(440,529,o),
(406,553,c),
(44,554,l),
(44,0,l)
);
},
{
closed = 1;
nodes = (
(217,157,l),
(217,282,l),
(276,268,o),
(307,226,o),
(307,164,cs),
(307,108,o),
(277,63,o),
(217,31,c)
);
},
{
closed = 1;
nodes = (
(217,524,l),
(259,505,o),
(284,470,o),
(284,431,cs),
(284,393,o),
(259,355,o),
(217,327,c)
);
}
);
width = 505;
}
);
metricLeft = H;
unicode = 66;
},
{
color = 2;
glyphname = C;
lastChange = "2023-11-15 12:16:01 +0000";
layers = (
{
anchors = (
{
name = bottom;
pos = (192,0);
},
{
name = center;
pos = (282,278);
},
{
name = top;
pos = (192,554);
}
);
layerId = m01;
shapes = (
{
closed = 1;
nodes = (
(30,170,o),
(64,70,o),
(129,0,c),
(354,-1,l),
(253,84,o),
(203,174,o),
(203,272,cs),
(203,379,o),
(251,469,o),
(354,553,c),
(129,554,l),
(66,497,o),
(30,400,o),
(30,289,cs)
);
}
);
width = 384;
}
);
unicode = 67;
},
{
color = 3;
glyphname = D;
lastChange = "2023-11-13 20:46:35 +0000";
layers = (
{
anchors = (
{
name = bottom;
pos = (251,0);
},
{
name = center;
pos = (251,277);
},
{
name = top;
pos = (251,554);
}
);
layerId = m01;
shapes = (
{
closed = 1;
nodes = (
(393,0,l),
(447,63,o),
(479,167,o),
(479,277,cs),
(479,387,o),
(447,490,o),
(393,554,c),
(20,554,l),
(20,0,l)
);
},
{
closed = 1;
nodes = (
(193,522,l),
(274,462,o),
(314,377,o),
(314,280,cs),
(314,182,o),
(273,99,o),
(193,32,c)
);
}
);
width = 499;
}
);
unicode = 68;
},
{
color = 3;
glyphname = E;
lastChange = "2023-11-15 12:15:20 +0000";
layers = (
{
anchors = (
{
name = bottom;
pos = (209,0);
},
{
name = center;
pos = (272,277);
},
{
name = ogonek;
pos = (376,10);
},
{
name = top;
pos = (209,554);
},
{
name = topleft;
pos = (20,554);
}
);
background = {
shapes = (
{
closed = 1;
nodes = (
(506,0,l),
(506,554,l),
(333,554,l),
(333,0,l)
);
},
{
closed = 1;
nodes = (
(217,0,l),
(217,554,l),
(44,554,l),
(44,0,l)
);
},
{
closed = 1;
nodes = (
(477,234,l),
(477,354,l),
(66,354,l),
(66,234,l)
);
},
{
pos = (4,0);
ref = F;
}
);
};
layerId = m01;
shapes = (
{
closed = 1;
nodes = (
(198,224,l),
(352,224,l),
(352,340,l),
(198,340,l)
);
},
{
closed = 1;
nodes = (
(214,431,l),
(384,431,l),
(384,554,l),
(44,554,l),
(44,0,l),
(388,0,l),
(388,124,l),
(214,124,l)
);
}
);
width = 418;
}
);
metricLeft = H;
unicode = 69;
},
{
color = 2;
glyphname = Ezh;
lastChange = "2023-11-13 21:20:43 +0000";
layers = (
{
anchors = (
{
name = bottom;
pos = (232,0);
},
{
name = top;
pos = (232,554);
}
);
layerId = m01;
shapes = (
{
closed = 1;
nodes = (
(397,434,l),
(397,554,l),
(73,554,l),
(73,434,l),
(232,434,l),
(149,322,l),
(150,322,l),
(276,224,o),
(228,67,o),
(63,0,c),
(297,0,l),
(417,72,o),
(431,250,o),
(314,322,c)
);
}
);
width = 464;
}
);
unicode = 439;
},
{
color = 3;
glyphname = F;
lastChange = "2023-11-09 15:36:41 +0000";
layers = (
{
anchors = (
{
name = bottom;
pos = (113,0);
},
{
name = ogonek;
pos = (195,0);
},
{
name = top;
pos = (160,554);
},
{
name = topleft;
pos = (24,554);
}
);
background = {
shapes = (
{
pos = (-16,0);
ref = E;
}
);
};
layerId = m01;
shapes = (
{
closed = 1;
nodes = (
(195,0,l),
(195,193,l),
(332,193,l),
(332,311,l),
(194,311,l),
(194,435,l),
(360,435,l),
(360,554,l),
(24,554,l),
(24,0,l)
);
}
);
width = 380;
}
);
unicode = 70;
},
{
color = 3;
glyphname = G;
lastChange = "2023-11-13 20:04:19 +0000";
layers = (
{
anchors = (
{
name = bottom;
pos = (262,0);
},
{
name = top;
pos = (262,554);
}
);
layerId = m01;
shapes = (
{
closed = 1;
nodes = (
(444,0,l),
(480,60,o),
(500,160,o),
(500,273,cs),
(500,330,l),
(267,330,l),
(267,210,l),
(325,210,l),
(319,142,o),
(291,78,o),
(261,31,c),
(225,90,o),
(201,176,o),
(201,275,cs),
(201,379,o),
(227,464,o),
(262,522,c),
(288,481,o),
(298,448,o),
(309,401,c),
(493,401,l),
(482,464,o),
(462,518,o),
(435,554,c),
(78,554,l),
(41,493,o),
(20,391,o),
(20,280,cs),
(20,162,o),
(44,58,o),
(88,0,c)
);
}
);
width = 523;
}
);
unicode = 71;
},
{
color = 4;
glyphname = H;
lastChange = "2023-11-14 13:18:01 +0000";
layers = (
{
anchors = (
{
name = bottom;
pos = (275,0);
},
{
name = center;
pos = (275,277);
},
{
name = top;
pos = (275,554);
},
{
name = topleft;
pos = (44,554);
}
);
layerId = m01;
shapes = (
{
closed = 1;
nodes = (
(217,554,l),
(44,554,l),
(44,0,l),
(217,0,l)
);
},
{
closed = 1;
nodes = (
(333,0,l),
(506,0,l),
(506,554,l),
(333,554,l)
);
},
{
closed = 1;
nodes = (
(201,224,l),
(349,224,l),
(349,340,l),
(201,340,l)
);
}
);
width = 550;
}
);
unicode = 72;
},
{
color = 3;
glyphname = I;
lastChange = "2023-11-15 12:37:21 +0000";
layers = (
{
anchors = (
{
name = bottom;
pos = (111,0);
},
{
name = ogonek;
pos = (182,0);
},
{
name = stroke;
pos = (111,277);
},
{
name = top;
pos = (111,554);
},
{
name = topleft;
pos = (20,554);
}
);
layerId = m01;
shapes = (
{
closed = 1;
nodes = (
(197,0,l),
(197,554,l),
(24,554,l),
(24,0,l)
);
}
);
width = 221;
}
);
unicode = 73;
},
{
color = 3;
glyphname = J;
lastChange = "2023-11-15 12:42:10 +0000";
layers = (
{
anchors = (
{
name = bottom;
pos = (-4,0);
},
{
name = stroke;
pos = (111,277);
},
{
name = top;
pos = (-18,554);
}
);
layerId = m01;
shapes = (
{
closed = 1;
nodes = (
(129,-126,l),
(177,-95,o),
(203,-44,o),
(203,21,cs),
(203,554,l),
(30,554,l),
(30,28,ls),
(30,-39,o),
(11,-91,o),
(-27,-126,c)
);
}
);
width = 228;
}
);
unicode = 74;
},
{
color = 3;
glyphname = K;
lastChange = "2023-11-14 14:26:08 +0000";
layers = (
{
anchors = (
{
name = bottom;
pos = (245,0);
},
{
name = top;
pos = (233,554);
}
);
background = {
shapes = (
{
closed = 1;
nodes = (
(464,0,l),
(464,183,o),
(447,252,o),
(375,314,c),
(411,349,o),
(434,383,o),
(434,445,cs),
(434,554,l),
(261,554,l),
(261,434,ls),
(261,389,o),
(245,358,o),
(203,326,c),
(203,554,l),
(30,554,l),
(30,0,l),
(203,0,l),
(203,295,l),
(272,221,o),
(285,167,o),
(285,0,c)
);
}
);
};
layerId = m01;
shapes = (
{
closed = 1;
nodes = (
(472,-1,l),
(460,170,ls),
(456,228,o),
(427,286,o),
(381,310,c),
(427,334,o),
(450,386,o),
(450,444,cs),
(450,553,l),
(277,553,l),
(277,444,ls),
(277,399,o),
(259,353,o),
(203,321,c),
(203,554,l),
(30,554,l),
(30,0,l),
(203,0,l),
(203,295,l),
(259,279,o),
(281,215,o),
(284,170,cs),
(296,-1,l)
);
}
);
width = 494;
}
);
unicode = 75;
},
{
color = 3;
glyphname = L;
lastChange = "2023-11-14 13:00:32 +0000";
layers = (
{
anchors = (
{
name = bottom;
pos = (200,0);
},
{
name = center;
pos = (200,277);
},
{
name = top;
pos = (200,554);
},
{
name = topright;
pos = (375,554);
}
);
background = {
shapes = (
{
closed = 1;
nodes = (
(387,0,l),
(387,120,l),
(230,120,l),
(230,554,l),
(60,554,l),
(60,0,l)
);
}
);
};
layerId = m01;
shapes = (
{
closed = 1;
nodes = (
(383,0,l),
(383,124,l),
(214,124,l),
(214,554,l),
(44,554,l),
(44,0,l)
);
}
);
width = 395;
}
);
metricLeft = H;
unicode = 76;
},
{
color = 3;
glyphname = M;
lastChange = "2023-11-14 13:00:32 +0000";
layers = (
{
anchors = (
{
name = bottom;
pos = (362,0);
},
{
name = top;
pos = (362,554);
}
);
background = {
shapes = (
{
closed = 1;
nodes = (
(699,0,l),
(699,354,ls),
(699,439,o),
(672,506,o),
(618,554,c),
(44,554,l),
(44,0,l),
(217,0,l),
(217,524,l),
(266,494,o),
(285,432,o),
(285,314,cs),
(285,0,l),
(458,0,l),
(458,354,ls),
(458,432,o),
(449,479,o),
(423,523,c),
(505,480,o),
(526,432,o),
(526,314,cs),
(526,0,l)
);
}
);
};
layerId = m01;
shapes = (
{
closed = 1;
nodes = (
(709,0,l),
(709,354,ls),
(709,439,o),
(682,506,o),
(628,554,c),
(44,554,l),
(44,0,l),
(217,0,l),
(217,524,l),
(276,494,o),
(295,432,o),
(295,314,cs),
(295,0,l),
(458,0,l),
(458,354,ls),
(458,432,o),
(449,479,o),
(423,523,c),
(505,480,o),
(536,432,o),
(536,314,cs),
(536,0,l)
);
}
);
width = 745;
}
);
metricLeft = H;
metricRight = N;
unicode = 77;
},
{
color = 3;
glyphname = N;
lastChange = "2023-11-14 13:00:32 +0000";
layers = (
{
anchors = (
{
name = bottom;
pos = (265,0);
},
{
name = top;
pos = (251,554);
}
);
layerId = m01;
shapes = (
{
closed = 1;
nodes = (
(476,-1,l),
(476,316,ls),
(476,428,o),
(454,516,o),
(398,554,c),
(44,554,l),
(44,0,l),
(217,0,l),
(217,522,l),
(279,488,o),
(300,409,o),
(300,286,cs),
(300,-1,l)
);
}
);
width = 512;
}
);
metricLeft = H;
unicode = 78;
},
{
color = 3;
glyphname = O;
lastChange = "2023-11-14 13:10:21 +0000";
layers = (
{
anchors = (
{
name = bottom;
pos = (272,0);
},
{
name = center;
pos = (272,277);
},
{
name = ogonek;
pos = (448,0);
},
{
name = top;
pos = (272,554);
},
{
name = topleft;
pos = (95,554);
},
{
name = topright;
pos = (452,554);
}
);
background = {
shapes = (
{
pos = (2,0);
ref = H;
}
);
};
guides = (
{
pos = (272,32);
}
);
layerId = m01;
shapes = (
{
closed = 1;
nodes = (
(443,0,l),
(487,58,o),
(511,162,o),
(511,278,cs),
(511,391,o),
(488,493,o),
(447,554,c),
(100,554,l),
(56,496,o),
(32,392,o),
(32,276,cs),
(32,163,o),
(55,61,o),
(96,0,c)
);
},
{
closed = 1;
nodes = (
(207,366,o),
(230,454,o),
(269,522,c),
(311,456,o),
(336,367,o),
(336,275,cs),
(336,188,o),
(313,100,o),
(274,32,c),
(232,98,o),
(207,187,o),
(207,279,cs)
);
}
);
width = 543;
}
);
unicode = 79;
},
{
color = 3;
glyphname = P;
lastChange = "2023-11-15 12:55:29 +0000";
layers = (
{
anchors = (
{
name = bottom;
pos = (246,0);
},
{
name = stroke;
pos = (122,359);
},
{
name = top;
pos = (246,554);
}
);
background = {
shapes = (
{
closed = 1;
nodes = (
(209,0,l),
(209,554,l),
(36,554,l),
(36,0,l)
);
},
{
closed = 1;
nodes = (
(398,154,l),
(398,154,o),
(456,214,o),
(456,354,cs),
(456,494,o),
(398,554,o),
(398,554,c),
(184,554,l),
(184,554,o),
(283,484,o),
(283,354,cs),
(283,224,o),
(184,154,o),
(184,154,c)
);
}
);
};
layerId = m01;
shapes = (
{
closed = 1;
nodes = (
(209,0,l),
(209,154,l),
(398,154,l),
(433,193,o),
(456,272,o),
(456,354,cs),
(456,437,o),
(434,513,o),
(398,554,c),
(36,554,l),
(36,0,l)
);
},
{
closed = 1;
nodes = (
(209,523,l),
(261,489,o),
(293,426,o),
(293,354,cs),
(293,284,o),
(261,221,o),
(209,177,c)
);
}
);
width = 476;
}
);
unicode = 80;
},
{
color = 3;
glyphname = Thorn;
lastChange = "2023-10-27 13:51:47 +0000";
layers = (
{
anchors = (
{
name = bottom;
pos = (292,0);
},
{
name = top;
pos = (292,554);
}
);
layerId = m01;
shapes = (
{
closed = 1;
nodes = (
(402,113,l),
(437,146,o),
(460,214,o),
(460,284,cs),
(460,355,o),
(437,421,o),
(402,455,c),
(188,455,l),
(249,416,o),
(287,350,o),
(287,284,cs),
(287,218,o),
(249,152,o),
(188,113,c)
);
},
{
closed = 1;
nodes = (
(213,0,l),
(213,554,l),
(40,554,l),
(40,0,l)
);
}
);
width = 508;
}
);
metricLeft = H;
unicode = 222;
},
{
color = 3;
glyphname = Q;
lastChange = "2023-11-13 21:16:12 +0000";
layers = (
{
anchors = (
{
name = bottom;
pos = (265,0);
},
{
name = jot;
pos = (265,-412);
},
{
name = leg;
pos = (205,-412);
},
{
name = top;
pos = (265,554);
}
);
background = {
anchors = (
{
name = bottom;
pos = (265,0);
},
{
name = jot;
pos = (265,-412);
},
{
name = leg;
pos = (205,-412);
},
{
name = top;
pos = (265,554);
}
);
shapes = (
{
closed = 1;
nodes = (
(411,-127,l),
(373,-99,o),
(356,-70,o),
(356,-31,cs),
(356,0,l),
(448,0,l),
(485,61,o),
(506,163,o),
(506,274,cs),
(506,392,o),
(482,496,o),
(438,554,c),
(81,554,l),
(44,493,o),
(23,391,o),
(23,280,cs),
(23,162,o),
(47,58,o),
(91,0,c),
(177,0,l),
(177,-31,ls),
(177,-69,o),
(193,-97,o),
(232,-127,c)
);
},
{
closed = 1;
nodes = (
(202,366,o),
(225,456,o),
(264,521,c),
(304,453,o),
(327,367,o),
(327,277,cs),
(327,188,o),
(304,98,o),
(265,33,c),
(225,101,o),
(202,187,o),
(202,277,cs)
);
}
);
};
layerId = m01;
shapes = (
{
closed = 1;
nodes = (
(430,-127,l),
(368,-55,o),
(211,41,o),
(211,270,cs),
(211,345,o),
(235,456,o),
(274,521,c),
(314,453,o),
(337,366,o),
(337,285,cs),
(337,169,o),
(289,64,o),
(219,0,c),
(428,0,l),
(480,61,o),
(516,162,o),
(516,282,cs),
(516,391,o),
(482,496,o),
(438,554,c),
(91,554,l),
(54,493,o),
(32,390,o),
(32,293,c),
(32,54,o),
(134,-54,o),
(217,-126,c)
);
}
);
width = 548;
}
);
metricLeft = o;
metricRight = o;
unicode = 81;
},
{
color = 3;
glyphname = R;
lastChange = "2023-11-15 13:17:42 +0000";
layers = (
{
anchors = (
{
name = bottom;
pos = (245,0);
},
{
name = stroke;
pos = (117,418);
},
{
name = top;
pos = (233,554);
}
);
layerId = m01;
shapes = (
{
closed = 1;
nodes = (
(472,-1,l),
(460,159,ls),
(456,221,o),
(424,276,o),
(381,299,c),
(420,319,o),
(450,376,o),
(450,430,cs),
(450,484,o),
(423,532,o),
(381,554,c),
(30,554,l),
(30,0,l),
(203,0,l),
(203,284,l),
(247,271,o),
(280,221,o),
(284,159,cs),
(296,-1,l)
);
},
{
closed = 1;
nodes = (
(203,527,l),
(246,512,o),
(277,471,o),
(277,423,cs),
(277,378,o),
(250,337,o),
(203,310,c)
);
}
);
width = 490;
}
);
unicode = 82;
},
{
color = 3;
glyphname = S;
lastChange = "2023-11-13 20:33:29 +0000";
layers = (
{
anchors = (
{
name = bottom;
pos = (153,0);
},
{
name = top;
pos = (153,554);
}
);
layerId = m01;
shapes = (
{
closed = 1;
nodes = (
(232,0,l),
(267,43,o),
(290,100,o),
(290,159,cs),
(290,212,o),
(272,246,o),
(248,301,cs),
(231,340,o),
(219,371,o),
(219,412,cs),
(219,468,o),
(242,511,o),
(275,554,c),
(84,552,l),
(50,510,o),
(28,450,o),
(28,389,cs),
(28,342,o),
(41,308,o),
(53,279,cs),
(71,236,o),
(94,189,o),
(94,142,cs),
(94,90,o),
(65,37,o),
(37,-2,c)
);
}
);
width = 318;
}
);
unicode = 83;
},
{
color = 3;
glyphname = T;
lastChange = "2023-11-15 15:11:29 +0000";
layers = (
{
anchors = (
{
name = bottom;
pos = (214,0);
},
{
name = center;
pos = (214,277);
},
{
name = top;
pos = (214,554);
}
);
layerId = m01;
shapes = (
{
closed = 1;
nodes = (
(301,0,l),
(301,429,l),
(417,429,l),
(417,554,l),
(12,554,l),
(12,429,l),
(128,429,l),
(128,0,l)
);
}
);
width = 429;
}
);
unicode = 84;
},
{
color = 3;
glyphname = U;
lastChange = "2023-11-13 20:35:38 +0000";
layers = (
{
anchors = (
{
name = bottom;
pos = (256,0);
},
{
name = ogonek;
pos = (461,10);
},
{
name = top;
pos = (256,554);
},
{
name = topright;
pos = (492,554);
}
);
background = {
shapes = (
{
closed = 1;
nodes = (
(356,0,l),
(277,58,o),
(227,166,o),
(227,277,cs),
(227,554,l),
(48,554,l),
(48,277,ls),
(48,136,o),
(77,63,o),
(160,0,c)
);
},
{
closed = 1;
nodes = (
(510,0,l),
(510,554,l),
(331,554,l),
(331,0,l)
);
},
{
closed = 1;
nodes = (
(510,0,l),
(510,554,l),
(331,554,l),
(331,32,l),
(276,61,o),
(227,169,o),
(227,300,cs),
(227,554,l),
(48,554,l),
(48,300,ls),
(48,136,o),
(77,63,o),
(160,0,c)
);
}
);
};
layerId = m01;
shapes = (
{
closed = 1;
nodes = (
(40,554,l),
(40,237,ls),
(40,125,o),
(62,37,o),
(118,-1,c),
(472,-1,l),
(472,553,l),
(299,553,l),
(299,31,l),
(237,65,o),
(216,144,o),
(216,267,cs),
(216,554,l)
);
}
);
width = 512;
}
);
unicode = 85;
},
{
color = 3;
glyphname = V;
lastChange = "2023-11-09 15:36:41 +0000";
layers = (
{
anchors = (
{
name = bottom;
pos = (270,0);
},
{
name = ogonek;
pos = (409,0);
},
{
name = top;
pos = (270,554);
}
);
background = {
shapes = (
{
closed = 1;
nodes = (
(433,0,l),
(477,58,o),
(489,163,o),
(495,318,cs),
(503,554,l),
(324,554,l),
(315,318,ls),
(310,172,o),
(291,71,o),
(237,0,c)
);
},
{
closed = 1;
nodes = (
(292,0,l),
(239,66,o),
(219,172,o),
(214,318,cs),
(205,554,l),
(26,554,l),
(34,318,ls),
(40,162,o),
(49,61,o),
(86,0,c)
);
},
{
closed = 1;
nodes = (
(429,0,l),
(474,58,o),
(492,163,o),
(497,273,cs),
(510,554,l),
(331,554,l),
(317,273,ls),
(312,176,o),
(290,43,o),
(239,10,c),
(288,10,l),
(241,41,o),
(217,179,o),
(212,273,cs),
(198,554,l),
(19,554,l),
(32,273,ls),
(37,162,o),
(52,61,o),
(90,0,c)
);
}
);
};
layerId = m01;
shapes = (
{
closed = 1;
nodes = (
(409,0,l),
(443,46,o),
(464,121,o),
(477,245,cs),
(511,554,l),
(340,554,l),
(305,236,ls),
(293,133,o),
(281,69,o),
(265,34,c),
(246,69,o),
(233,130,o),
(221,236,cs),
(185,554,l),
(12,554,l),
(46,253,ls),
(62,115,o),
(83,44,o),
(121,0,c)
);
}
);
width = 531;
}
);
unicode = 86;
},
{
color = 3;
glyphname = W;
lastChange = "2023-11-09 15:36:41 +0000";
layers = (
{
anchors = (
{
name = bottom;
pos = (375,0);
},
{
name = jot;
pos = (151,0);
},
{
name = leg;
pos = (404,0);
},
{
name = top;
pos = (375,554);
}
);
background = {
shapes = (
{
closed = 1;
nodes = (
(629,0,l),
(629,0,o),
(675,60,o),
(700,200,c),
(732,554,l),
(559,554,l),
(559,554,o),
(554,343,o),
(527,200,cs),
(502,69,o),
(404,0,o),
(404,0,c)
);
},
{
closed = 1;
nodes = (
(238,0,l),
(191,554,l),
(18,554,l),
(65,0,l)
);
},
{
closed = 1;
nodes = (
(422,0,l),
(422,0,o),
(471,60,o),
(469,200,cs),
(465,554,l),
(292,554,l),
(292,554,o),
(296,330,o),
(296,200,cs),
(296,70,o),
(211,0,o),
(211,0,c)
);
}
);
};
layerId = m01;
shapes = (
{
closed = 1;
nodes = (
(629,0,l),
(661,38,o),
(680,103,o),
(689,202,cs),
(720,554,l),
(547,554,l),
(522,198,ls),
(517,124,o),
(499,87,o),
(438,29,c),
(449,62,o),
(455,120,o),
(455,199,cs),
(454,554,l),
(281,554,l),
(284,199,ls),
(285,122,o),
(274,81,o),
(237,35,c),
(185,554,l),
(12,554,l),
(61,0,l)
);
}
);
width = 732;
}
);
unicode = 87;
},
{
color = 0;
glyphname = X;
lastChange = "2023-11-13 20:18:30 +0000";
layers = (
{
anchors = (
{
name = bottom;
pos = (267,0);
},
{
name = center;
pos = (267,277);
},
{
name = top;
pos = (267,554);
},
{
name = topleft;
pos = (36,554);
}
);
background = {
shapes = (
{
ref = K;
}
);
};
layerId = m01;
shapes = (
{
closed = 1;
nodes = (
(209,0,l),
(209,139,ls),
(209,191,o),
(232,265,o),
(267,307,c),
(302,264,o),
(325,191,o),
(325,139,cs),
(325,0,l),
(498,0,l),
(498,139,ls),
(498,211,o),
(472,297,o),
(431,332,c),
(498,554,l),
(325,554,l),
(265,348,l),
(209,554,l),
(36,554,l),
(97,328,l),
(58,288,o),
(36,208,o),
(36,139,cs),
(36,0,l)
);
}
);
width = 534;
}
);
unicode = 88;
},
{
color = 0;
glyphname = Y;
lastChange = "2023-11-15 13:07:58 +0000";
layers = (
{
anchors = (
{
name = bottom;
pos = (267,0);
},
{
name = center;
pos = (268,424);
},
{
name = top;
pos = (267,554);
},
{
name = topleft;
pos = (36,555);
}
);
layerId = m01;
shapes = (
{
closed = 1;
nodes = (
(353,0,l),
(353,211,l),
(378,211,l),
(466,262,o),
(498,346,o),
(498,454,cs),
(498,555,l),
(325,555,l),
(325,465,ls),
(325,383,o),
(306,326,o),
(268,293,c),
(229,326,o),
(209,383,o),
(209,465,cs),
(209,555,l),
(36,555,l),
(36,454,ls),
(36,346,o),
(68,262,o),
(156,211,c),
(180,211,l),
(180,0,l)
);
}
);
width = 534;
}
);
unicode = 89;
},
{
color = 0;
glyphname = Z;
lastChange = "2023-11-15 15:11:07 +0000";
layers = (
{
anchors = (
{
name = bottom;
pos = (216,0);
},
{
name = center;
pos = (216,294);
},
{
name = top;
pos = (216,554);
}
);
background = {
anchors = (
{
name = bottom;
pos = (210,0);
},
{
name = ogonek;
pos = (398,0);
},
{
name = top;
pos = (210,554);
},
{
name = topleft;
pos = (-6,554);
}
);
shapes = (
{
closed = 1;
nodes = (
(351,0,l),
(351,120,l),
(182,120,l),
(182,224,l),
(320,224,l),
(320,340,l),
(182,340,l),
(182,436,l),
(348,436,l),
(348,554,l),
(12,554,l),
(12,0,l)
);
}
);
};
layerId = m01;
shapes = (
{
closed = 1;
nodes = (
(408,0,l),
(408,120,l),
(189,120,l),
(198,163,o),
(224,209,o),
(278,266,cs),
(392,390,o),
(409,433,o),
(409,554,c),
(28,554,l),
(28,437,l),
(221,437,l),
(211,414,o),
(203,403,o),
(127,315,cs),
(26,199,o),
(12,138,o),
(12,0,c)
);
}
);
width = 421;
}
);
unicode = 90;
},
{
color = 5;
glyphname = J.ss01;
layers = (
{
anchors = (
{
name = bottom;
pos = (16,0);
},
{
name = top;
pos = (2,554);
}
);
layerId = m01;
shapes = (
{
closed = 1;
nodes = (
(187,-174,l),
(206,-146,o),
(222,-77,o),
(222,-27,cs),
(223,554,l),
(50,554,l),
(50,34,ls),
(50,-28,o),
(22,-111,o),
(-20,-174,c)
);
}
);
width = 247;
}
);
},
{
color = 9;
glyphname = M.ss01;
lastChange = "2023-10-25 15:39:18 +0000";
layers = (
{
anchors = (
{
name = bottom;
pos = (342,0);
},
{
name = top;
pos = (342,554);
}
);
layerId = m01;
shapes = (
{
closed = 1;
nodes = (
(659,0,l),
(659,291,ls),
(659,396,o),
(635,506,o),
(588,554,c),
(363,554,l),
(442,503,o),
(486,389,o),
(486,291,cs),
(486,0,l)
);
},
{
closed = 1;
nodes = (
(197,0,l),
(197,554,l),
(24,554,l),
(24,0,l)
);
},
{
closed = 1;
nodes = (
(428,0,l),
(428,291,ls),
(428,394,o),
(410,511,o),
(381,554,c),
(170,554,l),
(224,504,o),
(255,389,o),
(255,291,cs),
(255,0,l)
);
}
);
width = 683;
}
);
},
{
color = 9;
glyphname = S.ss01;
lastChange = "2023-10-27 15:19:40 +0000";
layers = (
{
anchors = (
{
name = bottom;
pos = (254,0);
},
{
name = top;
pos = (254,554);
}
);
background = {
shapes = (
{
closed = 1;
nodes = (
(440,0,l),
(460,31,o),
(470,67,o),
(470,103,cs),
(470,125,o),
(466,146,o),
(459,167,cs),
(442,218,o),
(414,259,o),
(370,296,cs),
(258,389,o),
(243,405,o),
(234,440,cs),
(232,447,o),
(232,454,o),
(232,461,cs),
(232,488,o),
(245,515,o),
(277,554,c),
(71,554,l),
(50,519,o),
(39,484,o),
(39,451,cs),
(39,443,o),
(40,434,o),
(41,426,cs),
(50,375,o),
(79,330,o),
(132,285,cs),
(207,221,o),
(252,190,o),
(274,153,cs),
(281,141,o),
(284,127,o),
(284,112,cs),
(284,77,o),
(268,35,o),
(240,0,c)
);
},
{
closed = 1;
nodes = (
(285,0,l),
(245,29,o),
(223,84,o),
(223,150,cs),
(223,159,o),
(223,168,o),
(224,177,c),
(40,177,l),
(38,166,o),
(38,154,o),
(38,143,cs),
(38,81,o),
(61,26,o),
(99,0,c)
);
},
{
closed = 1;
nodes = (
(465,386,l),
(467,397,o),
(468,409,o),
(468,422,cs),
(468,468,o),
(453,519,o),
(427,554,c),
(241,554,l),
(274,511,o),
(293,456,o),
(293,411,cs),
(293,402,o),
(292,394,o),
(291,386,c)
);
}
);
};
layerId = m01;
shapes = (
{
closed = 1;
nodes = (
(440,0,l),
(456,22,o),
(470,66,o),
(470,109,cs),
(470,182,o),
(429,242,o),
(346,315,cs),
(280,373,o),
(232,405,o),
(232,456,cs),
(232,487,o),
(249,520,o),
(277,554,c),
(71,554,l),
(51,521,o),
(38,486,o),
(38,449,cs),
(38,362,o),
(108,304,o),
(181,243,cs),
(253,183,o),
(284,160,o),
(284,111,cs),
(284,76,o),
(268,34,o),
(240,0,c)
);
},
{
closed = 1;
nodes = (
(285,0,l),
(247,28,o),
(223,81,o),
(223,138,cs),
(223,164,o),
(223,169,o),
(224,177,c),
(40,177,l),
(38,168,o),
(38,160,o),
(38,134,cs),
(38,79,o),
(62,25,o),
(99,0,c)
);
},
{
closed = 1;
nodes = (
(465,386,l),
(467,398,o),
(468,414,o),
(468,426,cs),
(468,471,o),
(453,519,o),
(427,554,c),
(241,554,l),
(271,515,o),
(293,459,o),
(293,422,cs),
(293,407,o),
(293,398,o),
(291,386,c)
);
}
);
width = 508;
}
);
},
{
color = 9;
glyphname = V.ss01;
lastChange = "2023-10-25 15:39:18 +0000";
layers = (
{
anchors = (
{
name = bottom;
pos = (270,0);
},
{
name = top;
pos = (270,554);
}
);
layerId = m01;
shapes = (
{
closed = 1;
nodes = (
(453,0,l),
(490,61,o),
(503,162,o),
(503,277,cs),
(503,554,l),
(324,554,l),
(324,277,ls),
(324,172,o),
(300,66,o),
(247,0,c)
);
},
{
closed = 1;
nodes = (
(292,0,l),
(238,71,o),
(215,172,o),
(215,277,cs),
(215,554,l),
(36,554,l),
(36,277,ls),
(36,163,o),
(52,58,o),
(96,0,c)
);
}
);
width = 539;
}
);
},
{
color = 4;
glyphname = A.ss02;
lastChange = "2023-11-14 00:44:28 +0000";
layers = (
{
anchors = (
{
name = bottom;
pos = (255,0);
},
{
name = ogonek;
pos = (488,0);
},
{
name = top;
pos = (255,554);
}
);
background = {
shapes = (
{
pos = (-21,0);
ref = H;
}
);
};
guides = (
{
angle = 263.7191;
pos = (208,318);
},
{
angle = 263.7191;
pos = (2,0);
}
);
layerId = m01;
shapes = (
{
closed = 1;
nodes = (
(173,0,l),
(193,185,l),
(307,185,l),
(328,0,l),
(501,0,l),
(467,301,ls),
(451,439,o),
(430,510,o),
(392,554,c),
(114,553,l),
(80,507,o),
(59,432,o),
(46,308,cs),
(12,-1,l)
);
},
{
closed = 1;
nodes = (
(208,318,ls),
(220,421,o),
(232,485,o),
(248,520,c),
(267,485,o),
(280,424,o),
(292,318,cs),
(293,305,l),
(207,305,l)
);
}
);
width = 511;
}
);
},
{
color = 5;
glyphname = J.ss02;
layers = (
{
anchors = (
{
name = bottom;
pos = (16,0);
},
{
name = top;
pos = (2,554);
}
);
layerId = m01;
shapes = (
{
closed = 1;
nodes = (
(170,-171,l),
(200,-147,o),
(222,-93,o),
(222,-43,cs),
(223,554,l),
(50,554,l),
(50,-31,ls),
(50,-79,o),
(20,-143,o),
(-12,-171,c)
);
}
);
width = 247;
}
);
},
{
glyphname = Q.ss02;
lastChange = "2023-11-10 15:07:46 +0000";
layers = (
{
layerId = m01;
shapes = (
{
closed = 1;
nodes = (
(400,-127,l),
(344,-55,o),
(210,62,o),
(210,277,cs),
(210,366,o),
(233,456,o),
(272,521,c),
(312,453,o),
(335,367,o),
(335,268,cs),
(335,170,o),
(297,64,o),
(227,0,c),
(436,0,l),
(488,61,o),
(514,163,o),
(514,265,cs),
(514,392,o),
(490,496,o),
(446,554,c),
(89,554,l),
(52,493,o),
(31,391,o),
(31,280,cs),
(31,126,o),
(85,-16,o),
(173,-124,c)
);
}
);
width = 545;
}
);
metricLeft = O;
metricRight = O;
},
{
color = 9;
glyphname = F.ss10;
lastChange = "2023-10-25 15:39:18 +0000";
layers = (
{
anchors = (
{
name = bottom;
pos = (176,0);
},
{
name = connector;
pos = (24,400);
},
{
name = top;
pos = (176,554);
}
);
annotations = (
{
pos = (265.636,182.411);
text = "This is for setting the wordmark";
type = Text;
}
);
layerId = m01;
shapes = (
{
closed = 1;
nodes = (
(197,0,l),
(197,400,l),
(197,400,o),
(197,560,o),
(327,630,c),
(154,630,l),
(24,560,o),
(24,450,o),
(24,400,c),
(24,0,l)
);
},
{
closed = 1;
nodes = (
(327,280,l),
(327,400,l),
(24,400,l),
(24,280,l)
);
}
);
width = 351;
}
);
},
{
color = 3;
glyphname = a;
kernLeft = a;
lastChange = "2023-11-14 15:11:29 +0000";
layers = (
{
anchors = (
{
name = bottom;
pos = (225,0);
},
{
name = ogonek;
pos = (426,0);
},
{
name = top;
pos = (219,400);
}
);
layerId = m01;
shapes = (
{
closed = 1;
nodes = (
(426,0,l),
(426,253,ls),
(426,301,o),
(409,370,o),
(390,400,c),
(183,400,l),
(208,364,o),
(228,322,o),
(240,280,c),
(64,280,l),
(37,238,o),
(21,184,o),
(21,133,cs),
(21,79,o),
(39,34,o),
(76,0,c)
);
},
{
closed = 1;
nodes = (
(193,175,o),
(213,221,o),
(245,259,c),
(250,236,o),
(253,213,o),
(253,192,cs),
(253,22,l),
(215,50,o),
(193,89,o),
(193,133,cs)
);
}
);
width = 456;
}
);
metricRight = n;
unicode = 97;
},
{
color = 4;
glyphname = ae;
lastChange = "2023-11-15 15:28:00 +0000";
layers = (
{
anchors = (
{
name = bottom;
pos = (340,0);
},
{
name = top;
pos = (340,400);
}
);
layerId = m01;
shapes = (
{
closed = 1;
nodes = (
(497,0,l),
(453,59,o),
(427,133,o),
(427,196,cs),
(427,250,l),
(254,250,l),
(254,167,ls),
(254,99,o),
(271,30,o),
(290,0,c)
);
},
{
closed = 1;
nodes = (
(291,0,l),
(229,28,o),
(194,77,o),
(194,133,cs),
(194,182,o),
(221,238,o),
(267,280,c),
(65,280,l),
(35,227,o),
(21,175,o),
(21,133,cs),
(21,78,o),
(45,30,o),
(77,0,c)
);
},
{
closed = 1;
nodes = (
(427,170,l),
(427,253,ls),
(427,301,o),
(410,370,o),
(391,400,c),
(184,400,l),
(228,337,o),
(254,258,o),
(254,192,cs),
(254,170,l)
);
},
{
closed = 1;
nodes = (
(616,120,l),
(642,163,o),
(659,214,o),
(659,266,cs),
(659,323,o),
(639,367,o),
(604,400,c),
(390,400,l),
(451,373,o),
(487,322,o),
(487,267,cs),
(487,218,o),
(458,157,o),
(414,120,c)
);
}
);
width = 680;
}
);
metricLeft = a;
metricRight = e;
unicode = 230;
},
{
color = 3;
glyphname = b;
lastChange = "2023-11-14 15:10:57 +0000";
layers = (
{
anchors = (
{
name = bottom;
pos = (232,0);
},
{
name = center;
pos = (232,200);
},
{
name = stroke;
pos = (117,474);
},
{
name = top;
pos = (232,554);
}
);
background = {
shapes = (
{
closed = 1;
nodes = (
(203,0,l),
(203,554,l),
(30,554,l),
(30,0,l)
);
},
{
closed = 1;
nodes = (
(380,0,l),
(380,0,o),
(438,60,o),
(438,200,cs),
(438,340,o),
(380,400,o),
(380,400,c),
(166,400,l),
(166,400,o),
(265,330,o),
(265,200,cs),
(265,70,o),
(166,0,o),
(166,0,c)
);
}
);
};
guides = (
{
pos = (6,0);
}
);
layerId = m01;
shapes = (
{
closed = 1;
nodes = (
(380,0,l),
(416,42,o),
(438,117,o),
(438,200,cs),
(438,283,o),
(416,359,o),
(380,400,c),
(202,400,l),
(202,574,l),
(30,574,l),
(30,0,l)
);
},
{
closed = 1;
nodes = (
(202,365,l),
(241,320,o),
(265,260,o),
(265,200,cs),
(265,140,o),
(241,79,o),
(202,34,c)
);
}
);
width = 470;
}
);
metricLeft = h;
metricRight = o;
unicode = 98;
},
{
color = 3;
glyphname = "beta-latin";
lastChange = "2023-11-08 15:01:40 +0000";
layers = (
{
background = {
shapes = (
{
closed = 1;
nodes = (
(213,-200,l),
(213,554,l),
(40,554,l),
(40,-200,l)
);
}
);
};
layerId = m01;
shapes = (
{
closed = 1;
nodes = (
(420,0,l),
(455,44,o),
(477,108,o),
(475,160,cs),
(473,222,o),
(440,282,o),
(389,318,c),
(428,337,o),
(452,380,o),
(452,436,cs),
(452,487,o),
(432,529,o),
(396,554,c),
(192,554,l),
(192,531,l),
(255,517,o),
(280,475,o),
(280,431,cs),
(280,389,o),
(241,337,o),
(193,317,c),
(246,292,o),
(303,215,o),
(303,164,cs),
(303,117,o),
(256,51,o),
(202,25,c),
(202,0,l)
);
},
{
closed = 1;
nodes = (
(213,-200,l),
(213,400,ls),
(213,467,o),
(232,519,o),
(270,554,c),
(110,554,l),
(65,523,o),
(40,472,o),
(40,407,cs),
(40,-200,l)
);
}
);
width = 496;
}
);
unicode = 42933;
},
{
color = 3;
glyphname = c;
kernLeft = a;
lastChange = "2023-11-09 15:36:41 +0000";
layers = (
{
anchors = (
{
name = bottom;
pos = (165,0);
},
{
name = top;
pos = (165,400);
}
);
layerId = m01;
shapes = (
{
closed = 1;
nodes = (
(304,0,l),
(242,49,o),
(205,123,o),
(205,200,cs),
(205,278,o),
(241,350,o),
(304,400,c),
(90,400,l),
(52,355,o),
(32,283,o),
(32,202,cs),
(32,116,o),
(55,40,o),
(90,0,c)
);
}
);
width = 316;
}
);
metricLeft = o;
unicode = 99;
},
{
color = 3;
glyphname = d;
kernLeft = a;
lastChange = "2023-11-14 15:11:36 +0000";
layers = (
{
anchors = (
{
name = bottom;
pos = (258,0);
},
{
name = center;
pos = (352,251);
},
{
name = top;
pos = (245,574);
},
{
name = topright;
pos = (448,574);
}
);
guides = (
{
pos = (362,574);
}
);
layerId = m01;
shapes = (
{
closed = 1;
nodes = (
(448,0,l),
(448,574,l),
(276,574,l),
(276,400,l),
(90,400,l),
(53,356,o),
(32,283,o),
(32,201,cs),
(32,118,o),
(54,42,o),
(90,0,c)
);
},
{
closed = 1;
nodes = (
(205,263,o),
(232,327,o),
(276,374,c),
(276,27,l),
(232,74,o),
(205,135,o),
(205,200,cs)
);
}
);
width = 472;
}
);
metricLeft = o;
unicode = 100;
},
{
color = 3;
glyphname = e;
lastChange = "2023-11-09 15:36:41 +0000";
layers = (
{
anchors = (
{
name = bottom;
pos = (225,0);
},
{
name = ogonek;
pos = (267,0);
},
{
name = top;
pos = (225,400);
}
);
background = {
shapes = (
{
closed = 1;
nodes = (
(24,400,l),
(24,147,ls),
(24,91,o),
(44,25,o),
(60,0,c),
(267,0,l),
(251,24,o),
(197,108,o),
(197,208,cs),
(197,400,l)
);
},
{
closed = 1;
nodes = (
(160,400,l),
(160,400,o),
(257,360,o),
(257,270,cs),
(257,180,o),
(184,120,o),
(184,120,c),
(386,120,l),
(386,120,o),
(430,190,o),
(430,270,cs),
(430,350,o),
(374,400,o),
(374,400,c)
);
}
);
};
layerId = m01;
shapes = (
{
closed = 1;
nodes = (
(267,0,l),
(240,36,o),
(219,78,o),
(208,120,c),
(386,120,l),
(414,166,o),
(429,217,o),
(429,266,cs),
(429,321,o),
(411,366,o),
(374,400,c),
(24,400,l),
(24,167,ls),
(24,104,o),
(39,33,o),
(60,0,c)
);
},
{
closed = 1;
nodes = (
(197,378,l),
(235,350,o),
(257,310,o),
(257,267,cs),
(257,225,o),
(236,175,o),
(203,139,c),
(199,158,o),
(197,178,o),
(197,196,cs)
);
}
);
width = 450;
}
);
unicode = 101;
},
{
color = 3;
glyphname = esh;
lastChange = "2023-10-27 15:24:10 +0000";
layers = (
{
layerId = m01;
shapes = (
{
closed = 1;
nodes = (
(161,-270,l),
(177,-245,o),
(197,-179,o),
(197,-123,cs),
(197,366,ls),
(197,466,o),
(251,550,o),
(267,574,c),
(60,574,l),
(44,549,o),
(25,483,o),
(25,427,cs),
(25,-62,ls),
(25,-162,o),
(-30,-246,o),
(-46,-270,c)
);
}
);
width = 267;
}
);
unicode = 643;
},
{
color = 3;
glyphname = f;
kernLeft = f;
kernRight = f;
lastChange = "2023-11-14 15:12:00 +0000";
layers = (
{
anchors = (
{
name = bottom;
pos = (145,0);
},
{
name = top;
pos = (145,574);
}
);
layerId = m01;
shapes = (
{
closed = 1;
nodes = (
(200,0,l),
(200,280,l),
(266,280,l),
(266,400,l),
(200,400,l),
(200,420,ls),
(200,487,o),
(219,539,o),
(257,574,c),
(98,574,l),
(50,543,o),
(24,492,o),
(24,427,cs),
(24,0,l)
);
}
);
width = 280;
}
);
unicode = 102;
},
{
color = 3;
glyphname = g;
kernLeft = a;
lastChange = "2023-11-10 14:11:15 +0000";
layers = (
{
anchors = (
{
name = bottom;
pos = (293,-154);
},
{
name = top;
pos = (269,400);
}
);
guides = (
{
pos = (462,-210);
}
);
layerId = m01;
shapes = (
{
closed = 1;
nodes = (
(415,-154,l),
(434,-124,o),
(451,-55,o),
(451,-7,cs),
(451,400,l),
(90,400,l),
(54,355,o),
(32,281,o),
(32,202,cs),
(32,119,o),
(56,36,o),
(90,0,c),
(273,0,l),
(263,-52,o),
(241,-107,o),
(208,-154,c)
);
},
{
closed = 1;
nodes = (
(205,265,o),
(232,329,o),
(278,376,c),
(278,54,l),
(276,25,l),
(232,71,o),
(205,135,o),
(205,200,cs)
);
}
);
width = 475;
}
);
unicode = 103;
},
{
color = 4;
glyphname = h;
lastChange = "2023-11-14 15:12:11 +0000";
layers = (
{
anchors = (
{
name = bottom;
pos = (237,0);
},
{
name = center;
pos = (237,574);
},
{
name = engpart;
pos = (454,0);
},
{
name = jot;
pos = (116,400);
},
{
name = leg;
pos = (176,400);
},
{
name = stroke;
pos = (117,474);
},
{
name = top;
pos = (237,574);
}
);
background = {
shapes = (
{
pos = (-6,0);
ref = n;
}
);
};
layerId = m01;
shapes = (
{
closed = 1;
nodes = (
(454,0,l),
(454,200,ls),
(454,282,o),
(432,358,o),
(396,400,c),
(202,400,l),
(202,574,l),
(30,574,l),
(30,0,l),
(202,0,l),
(202,375,l),
(250,342,o),
(281,279,o),
(281,209,cs),
(281,0,l)
);
}
);
width = 484;
}
);
unicode = 104;
},
{
color = 3;
glyphname = i;
lastChange = "2023-11-09 15:36:41 +0000";
layers = (
{
guides = (
{
pos = (30,0);
}
);
layerId = m01;
shapes = (
{
closed = 1;
nodes = (
(203,0,l),
(203,400,l),
(30,400,l),
(30,0,l)
);
},
{
closed = 1;
nodes = (
(202,430,l),
(203,516,l),
(30,516,l),
(30,430,l)
);
}
);
width = 233;
}
);
metricLeft = n;
metricRight = n;
unicode = 105;
},
{
color = 3;
glyphname = idotless;
lastChange = "2023-10-19 18:54:44 +0000";
layers = (
{
anchors = (
{
name = bottom;
pos = (111,0);
},
{
name = ogonek;
pos = (197,0);
},
{
name = top;
pos = (111,400);
}
);
layerId = m01;
shapes = (
{
closed = 1;
nodes = (
(197,0,l),
(197,400,l),
(24,400,l),
(24,0,l)
);
}
);
width = 221;
}
);
unicode = 305;
},
{
color = 3;
glyphname = j;
lastChange = "2023-11-14 15:09:29 +0000";
layers = (
{
anchors = (
{
name = bottom;
pos = (85,-270);
},
{
name = top;
pos = (120,400);
}
);
background = {
shapes = (
{
closed = 1;
nodes = (
(152,-154,l),
(152,400,l),
(-21,400,l),
(-21,-154,l)
);
},
{
alignment = -1;
pos = (-50,0);
ref = _part.tittle;
}
);
};
guides = (
{
pos = (-291,440);
}
);
layerId = m01;
shapes = (
{
closed = 1;
nodes = (
(171,-154,l),
(190,-126,o),
(206,-57,o),
(206,-7,cs),
(207,400,l),
(34,400,l),
(34,54,ls),
(34,-8,o),
(6,-91,o),
(-36,-154,c)
);
},
{
closed = 1;
nodes = (
(206,430,l),
(207,516,l),
(34,516,l),
(34,430,l)
);
}
);
width = 231;
}
);
unicode = 106;
},
{
color = 0;
glyphname = jdotless;
lastChange = "2023-10-27 15:19:40 +0000";
layers = (
{
anchors = (
{
name = bottom;
pos = (130,-270);
},
{
name = top;
pos = (165,400);
}
);
layerId = m01;
shapes = (
{
closed = 1;
nodes = (
(216,-174,l),
(235,-146,o),
(251,-77,o),
(251,-27,cs),
(252,400,l),
(79,400,l),
(79,34,ls),
(79,-28,o),
(51,-111,o),
(9,-174,c)
);
}
);
width = 276;
}
);
metricRight = idotless;
unicode = 567;
},
{
color = 3;
glyphname = k;
lastChange = "2023-11-14 15:12:16 +0000";
layers = (
{
anchors = (
{
name = bottom;
pos = (240,0);
},
{
name = bowl;
pos = (174,0);
},
{
name = leg;
pos = (176,400);
},
{
name = top;
pos = (240,574);
}
);
layerId = m01;
shapes = (
{
closed = 1;
nodes = (
(202,0,l),
(202,264,l),
(248,231,o),
(277,185,o),
(277,140,cs),
(277,0,l),
(450,0,l),
(450,140,ls),
(450,198,o),
(417,256,o),
(371,280,c),
(435,400,l),
(262,400,l),
(202,290,l),
(202,574,l),
(30,574,l),
(30,0,l)
);
}
);
width = 474;
}
);
metricLeft = h;
metricRight = x;
unicode = 107;
},
{
color = 3;
glyphname = l;
kernLeft = l;
kernRight = l;
lastChange = "2023-11-14 15:12:32 +0000";
layers = (
{
anchors = (
{
name = bottom;
pos = (134,0);
},
{
name = center;
pos = (134,574);
},
{
name = top;
pos = (134,574);
},
{
name = topright;
pos = (247,574);
}
);
layerId = m01;
shapes = (
{
closed = 1;
nodes = (
(267,0,l),
(225,63,o),
(196,146,o),
(196,208,cs),
(196,574,l),
(24,574,l),
(25,147,ls),
(25,98,o),
(41,29,o),
(60,0,c)
);
}
);
width = 267;
}
);
unicode = 108;
},
{
color = 3;
glyphname = m;
lastChange = "2023-11-09 15:36:41 +0000";
layers = (
{
anchors = (
{
name = bottom;
pos = (344,0);
},
{
name = top;
pos = (344,400);
}
);
background = {
shapes = (
{
closed = 1;
nodes = (
(203,0,l),
(203,400,l),
(30,400,l),
(30,0,l)
);
},
{
closed = 1;
nodes = (
(434,0,l),
(434,200,ls),
(434,340,o),
(387,400,o),
(387,400,c),
(176,400,l),
(176,400,o),
(261,330,o),
(261,200,cs),
(261,70,o),
(261,0,o),
(261,0,c)
);
},
{
closed = 1;
nodes = (
(665,0,l),
(665,200,ls),
(665,340,o),
(594,400,o),
(594,400,c),
(369,400,l),
(369,400,o),
(492,330,o),
(492,200,cs),
(492,70,o),
(492,0,o),
(492,0,c)
);
}
);
};
layerId = m01;
shapes = (
{
closed = 1;
nodes = (
(671,0,l),
(671,207,ls),
(671,289,o),
(650,349,o),
(604,400,c),
(30,400,l),
(30,0,l),
(203,0,l),
(203,375,l),
(240,348,o),
(264,282,o),
(264,207,cs),
(264,0,l),
(437,0,l),
(437,207,ls),
(437,290,o),
(430,331,o),
(403,377,c),
(461,352,o),
(498,287,o),
(498,207,cs),
(498,0,l)
);
}
);
width = 701;
}
);
unicode = 109;
},
{
color = 5;
glyphname = n;
lastChange = "2023-11-09 15:36:41 +0000";
layers = (
{
anchors = (
{
name = bottom;
pos = (239,0);
},
{
name = engpart;
pos = (454,0);
},
{
name = jot;
pos = (116,400);
},
{
name = leg;
pos = (176,400);
},
{
name = top;
pos = (239,400);
}
);
layerId = m01;
shapes = (
{
closed = 1;
nodes = (
(454,0,l),
(454,200,ls),
(454,282,o),
(432,358,o),
(396,400,c),
(30,400,l),
(30,0,l),
(203,0,l),
(203,375,l),
(251,342,o),
(281,279,o),
(281,209,cs),
(281,0,l)
);
}
);
width = 484;
}
);
unicode = 110;
},
{
color = 5;
glyphname = o;
kernLeft = k;
lastChange = "2023-11-09 15:36:41 +0000";
layers = (
{
anchors = (
{
name = bottom;
pos = (256,0);
},
{
name = center;
pos = (256,200);
},
{
name = ogonek;
pos = (437,0);
},
{
name = top;
pos = (254,400);
},
{
name = topright;
pos = (436,400);
}
);
background = {
shapes = (
{
closed = 1;
nodes = (
(442,0,l),
(466,46,o),
(480,119,o),
(480,200,cs),
(480,282,o),
(465,359,o),
(442,400,c),
(238,400,l),
(273,359,o),
(307,291,o),
(307,200,cs),
(307,105,o),
(266,29,o),
(238,0,c)
);
},
{
closed = 1;
nodes = (
(274,0,l),
(230,51,o),
(205,124,o),
(205,200,cs),
(205,276,o),
(231,352,o),
(274,400,c),
(70,400,l),
(46,356,o),
(32,283,o),
(32,200,cs),
(32,118,o),
(46,42,o),
(70,0,c)
);
}
);
};
guides = (
{
angle = 90.6321;
pos = (255,199);
}
);
layerId = m01;
shapes = (
{
closed = 1;
nodes = (
(437,0,l),
(463,44,o),
(478,117,o),
(478,200,cs),
(478,285,o),
(463,361,o),
(436,400,c),
(73,400,l),
(47,356,o),
(32,283,o),
(32,200,cs),
(32,115,o),
(47,39,o),
(74,0,c)
);
},
{
closed = 1;
nodes = (
(205,265,o),
(223,328,o),
(253,375,c),
(286,327,o),
(305,264,o),
(305,200,cs),
(305,135,o),
(287,72,o),
(257,25,c),
(224,73,o),
(205,136,o),
(205,200,cs)
);
}
);
width = 510;
}
);
unicode = 111;
},
{
color = 3;
glyphname = p;
lastChange = "2023-11-09 15:36:41 +0000";
layers = (
{
anchors = (
{
name = bottom;
pos = (230,0);
},
{
name = leg;
pos = (170,0);
},
{
name = top;
pos = (230,400);
}
);
background = {
shapes = (
{
closed = 1;
nodes = (
(382,0,l),
(382,0,o),
(440,60,o),
(440,200,cs),
(440,340,o),
(382,400,o),
(382,400,c),
(168,400,l),
(168,400,o),
(267,330,o),
(267,200,cs),
(267,70,o),
(168,0,o),
(168,0,c)
);
},
{
closed = 1;
nodes = (
(197,-154,l),
(197,400,l),
(24,400,l),
(24,-154,l)
);
}
);
};
layerId = m01;
shapes = (
{
closed = 1;
nodes = (
(197,-154,l),
(197,0,l),
(382,0,l),
(418,43,o),
(440,116,o),
(440,201,cs),
(440,283,o),
(420,353,o),
(382,400,c),
(24,400,l),
(24,-154,l)
);
},
{
closed = 1;
nodes = (
(197,375,l),
(240,331,o),
(267,268,o),
(267,204,cs),
(267,139,o),
(240,72,o),
(197,26,c)
);
}
);
width = 460;
}
);
unicode = 112;
},
{
color = 3;
glyphname = q;
kernLeft = a;
lastChange = "2023-11-09 15:36:41 +0000";
layers = (
{
anchors = (
{
name = bottom;
pos = (230,0);
},
{
name = top;
pos = (230,400);
}
);
layerId = m01;
shapes = (
{
closed = 1;
nodes = (
(263,0,l),
(263,-154,l),
(436,-154,l),
(436,400,l),
(78,400,l),
(40,353,o),
(20,283,o),
(20,201,cs),
(20,116,o),
(42,43,o),
(78,0,c)
);
},
{
closed = 1;
nodes = (
(193,268,o),
(220,331,o),
(263,375,c),
(263,26,l),
(220,72,o),
(193,139,o),
(193,204,cs)
);
}
);
width = 460;
}
);
unicode = 113;
},
{
color = 3;
glyphname = r;
kernLeft = a;
lastChange = "2023-11-13 20:47:07 +0000";
layers = (
{
anchors = (
{
name = bottom;
pos = (119,0);
},
{
name = top;
pos = (179,400);
}
);
background = {
shapes = (
{
closed = 1;
nodes = (
(203,0,l),
(203,222,ls),
(203,289,o),
(234,347,o),
(298,400,c),
(87,400,l),
(52,362,o),
(30,287,o),
(30,200,cs),
(30,0,l)
);
}
);
};
layerId = m01;
shapes = (
{
closed = 1;
nodes = (
(207,0,l),
(207,246,ls),
(207,313,o),
(226,365,o),
(264,400,c),
(104,400,l),
(56,369,o),
(30,318,o),
(30,253,cs),
(30,0,l)
);
}
);
width = 284;
}
);
unicode = 114;
},
{
color = 3;
glyphname = s;
lastChange = "2023-11-09 15:36:41 +0000";
layers = (
{
anchors = (
{
name = bottom;
pos = (141,0);
},
{
name = top;
pos = (141,400);
}
);
background = {
shapes = (
{
closed = 1;
nodes = (
(221,0,l),
(221,0,o),
(261,50,o),
(261,120,cs),
(261,197,o),
(208,233,o),
(212,300,cs),
(214,338,o),
(252,400,o),
(252,400,c),
(60,400,l),
(60,400,o),
(20,350,o),
(20,280,cs),
(20,203,o),
(73,167,o),
(69,100,cs),
(67,62,o),
(29,0,o),
(29,0,c)
);
}
);
};
layerId = m01;
shapes = (
{
closed = 1;
nodes = (
(221,0,l),
(246,33,o),
(261,78,o),
(261,119,cs),
(261,160,o),
(247,189,o),
(233,217,cs),
(222,241,o),
(212,264,o),
(212,293,cs),
(212,324,o),
(224,358,o),
(252,400,c),
(60,400,l),
(37,369,o),
(20,321,o),
(20,279,cs),
(20,246,o),
(30,219,o),
(42,194,cs),
(55,165,o),
(69,138,o),
(69,110,cs),
(69,82,o),
(56,44,o),
(29,0,c)
);
}
);
width = 281;
}
);
unicode = 115;
},
{
color = 3;
glyphname = t;
lastChange = "2023-11-09 15:36:41 +0000";
layers = (
{
anchors = (
{
name = bottom;
pos = (164,0);
},
{
name = center;
pos = (164,200);
},
{
name = top;
pos = (164,400);
},
{
name = topright;
pos = (307,574);
}
);
background = {
shapes = (
{
closed = 1;
nodes = (
(308,0,l),
(261,65,o),
(238,156,o),
(238,280,cs),
(238,500,l),
(65,500,l),
(65,200,ls),
(65,118,o),
(81,28,o),
(101,0,c)
);
},
{
closed = 1;
nodes = (
(303,280,l),
(303,400,l),
(0,400,l),
(0,280,l)
);
}
);
};
layerId = m01;
shapes = (
{
closed = 1;
nodes = (
(305,0,l),
(259,59,o),
(235,154,o),
(235,270,cs),
(235,280,l),
(314,280,l),
(314,400,l),
(235,400,l),
(235,500,l),
(62,500,l),
(62,400,l),
(11,400,l),
(11,280,l),
(62,280,l),
(62,200,ls),
(62,117,o),
(78,29,o),
(98,0,c)
);
}
);
width = 327;
}
);
unicode = 116;
},
{
color = 3;
glyphname = u;
kernLeft = u;
lastChange = "2023-11-09 15:36:41 +0000";
layers = (
{
anchors = (
{
name = bottom;
pos = (242,0);
},
{
name = ogonek;
pos = (436,10);
},
{
name = top;
pos = (242,400);
},
{
name = topright;
pos = (464,400);
}
);
layerId = m01;
shapes = (
{
closed = 1;
nodes = (
(454,0,l),
(454,400,l),
(281,400,l),
(281,31,l),
(233,63,o),
(203,123,o),
(203,191,cs),
(203,400,l),
(30,400,l),
(30,200,ls),
(30,118,o),
(52,42,o),
(88,0,c)
);
}
);
width = 484;
}
);
unicode = 117;
},
{
color = 3;
glyphname = v;
kernRight = v;
lastChange = "2023-11-09 15:36:41 +0000";
layers = (
{
anchors = (
{
name = bottom;
pos = (238,0);
},
{
name = leg;
pos = (194,0);
},
{
name = top;
pos = (238,400);
}
);
background = {
shapes = (
{
closed = 1;
nodes = (
(405,0,l),
(405,0,o),
(452,60,o),
(452,200,c),
(452,400,l),
(279,400,l),
(279,400,o),
(279,330,o),
(279,200,cs),
(279,70,o),
(194,0,o),
(194,0,c)
);
},
{
closed = 1;
nodes = (
(220,0,l),
(187,400,l),
(14,400,l),
(47,0,l)
);
}
);
};
layerId = m01;
shapes = (
{
closed = 1;
nodes = (
(405,0,l),
(437,56,o),
(452,102,o),
(452,200,cs),
(452,400,l),
(279,400,l),
(279,200,ls),
(279,119,o),
(254,76,o),
(218,30,c),
(187,400,l),
(14,400,l),
(47,0,l)
);
}
);
width = 476;
}
);
unicode = 118;
},
{
color = 3;
glyphname = w;
kernRight = v;
lastChange = "2023-11-09 15:36:41 +0000";
layers = (
{
anchors = (
{
name = bottom;
pos = (342,0);
},
{
name = top;
pos = (342,400);
}
);
layerId = m01;
shapes = (
{
closed = 1;
nodes = (
(610,0,l),
(645,56,o),
(657,102,o),
(662,200,cs),
(672,400,l),
(499,400,l),
(489,200,ls),
(484,100,o),
(462,55,o),
(406,32,c),
(401,21,l),
(418,69,o),
(426,115,o),
(426,200,cs),
(426,400,l),
(261,400,l),
(261,200,ls),
(261,129,o),
(241,78,o),
(215,40,c),
(185,400,l),
(12,400,l),
(45,0,l)
);
}
);
width = 684;
}
);
unicode = 119;
},
{
color = 4;
glyphname = x;
lastChange = "2023-11-13 20:09:23 +0000";
layers = (
{
anchors = (
{
name = bottom;
pos = (253,0);
},
{
name = top;
pos = (253,400);
}
);
layerId = m01;
shapes = (
{
closed = 1;
nodes = (
(481,0,l),
(481,49,o),
(477,80,o),
(465,113,cs),
(450,154,o),
(425,193,o),
(386,220,c),
(452,400,l),
(283,400,l),
(242,278,l),
(225,296,o),
(218,307,o),
(213,332,cs),
(209,354,o),
(209,376,o),
(213,400,c),
(38,400,l),
(36,367,o),
(40,337,o),
(48,311,cs),
(60,270,o),
(82,233,o),
(113,205,c),
(24,0,l),
(201,0,l),
(262,150,l),
(272,137,o),
(283,117,o),
(292,90,cs),
(308,40,o),
(302,0,o),
(302,0,c)
);
}
);
width = 505;
}
);
unicode = 120;
},
{
color = 3;
glyphname = y;
kernLeft = u;
kernRight = d;
lastChange = "2023-11-09 15:36:41 +0000";
layers = (
{
anchors = (
{
name = bottom;
pos = (234,0);
},
{
name = top;
pos = (234,400);
}
);
background = {
shapes = (
{
closed = 1;
nodes = (
(24,400,l),
(24,200,ls),
(24,118,o),
(46,42,o),
(82,0,c),
(296,0,l),
(236,45,o),
(197,123,o),
(197,200,cs),
(197,400,l)
);
},
{
closed = 1;
nodes = (
(407,-154,l),
(423,-129,o),
(443,-63,o),
(443,-7,c),
(443,400,l),
(270,400,l),
(270,54,l),
(270,-46,o),
(216,-130,o),
(200,-154,c)
);
}
);
};
layerId = m01;
shapes = (
{
closed = 1;
nodes = (
(407,-154,l),
(426,-124,o),
(443,-55,o),
(443,-7,cs),
(443,400,l),
(270,400,l),
(270,52,l),
(268,24,l),
(224,70,o),
(197,136,o),
(197,200,cs),
(197,400,l),
(24,400,l),
(24,200,ls),
(24,118,o),
(46,42,o),
(82,0,c),
(265,0,l),
(255,-51,o),
(233,-106,o),
(200,-154,c)
);
}
);
width = 468;
}
);
unicode = 121;
},
{
color = 0;
glyphname = z;
lastChange = "2023-11-09 15:36:41 +0000";
layers = (
{
anchors = (
{
name = bottom;
pos = (164,0);
},
{
name = top;
pos = (164,400);
}
);
background = {
shapes = (
{
closed = 1;
nodes = (
(286,0,ls),
(286,0,o),
(236,66,o),
(236,100,cs),
(236,150,o),
(286,230,o),
(286,280,cs),
(286,314,o),
(246,400,o),
(246,400,cs),
(54,400,ls),
(54,400,o),
(94,334,o),
(94,300,cs),
(94,250,o),
(44,170,o),
(44,120,cs),
(44,86,o),
(84,0,o),
(84,0,cs)
);
}
);
};
layerId = m01;
shapes = (
{
closed = 1;
nodes = (
(296,0,l),
(263,29,o),
(223,105,o),
(223,122,cs),
(223,138,o),
(249,178,o),
(260,199,cs),
(272,221,o),
(296,270,o),
(296,285,cs),
(296,311,o),
(264,370,o),
(235,400,c),
(32,400,l),
(69,374,o),
(100,307,o),
(100,292,cs),
(100,281,o),
(83,242,o),
(65,213,cs),
(45,180,o),
(27,144,o),
(27,123,cs),
(27,106,o),
(48,48,o),
(87,0,c)
);
}
);
width = 322;
}
);
unicode = 122;
},
{
color = 8;
glyphname = f.ss01;
lastChange = "2023-10-19 19:11:31 +0000";
layers = (
{
anchors = (
{
name = bottom;
pos = (178,0);
},
{
name = top;
pos = (178,574);
}
);
layerId = m01;
shapes = (
{
closed = 1;
nodes = (
(262,0,l),
(262,400,ls),
(262,442,o),
(267,506,o),
(319,554,c),
(163,554,l),
(102,515,o),
(89,455,o),
(89,407,cs),
(89,0,l)
);
},
{
closed = 1;
nodes = (
(327,280,l),
(327,400,l),
(24,400,l),
(24,280,l)
);
}
);
width = 356;
}
);
},
{
color = 5;
glyphname = r.ss01;
kernLeft = a;
layers = (
{
anchors = (
{
name = bottom;
pos = (113,0);
},
{
name = top;
pos = (173,400);
}
);
background = {
shapes = (
{
closed = 1;
nodes = (
(201,-176,l),
(201,104,l),
(266,104,l),
(266,224,l),
(201,224,l),
(201,244,ls),
(201,311,o),
(220,363,o),
(258,398,c),
(98,398,l),
(50,367,o),
(24,316,o),
(24,251,cs),
(24,-176,l)
);
}
);
};
layerId = m01;
shapes = (
{
closed = 1;
nodes = (
(201,0,l),
(201,222,ls),
(201,298,o),
(211,358,o),
(262,400,c),
(96,400,l),
(72,379,o),
(24,353,o),
(24,223,cs),
(24,0,l)
);
}
);
width = 262;
}
);
},
{
color = 8;
glyphname = t.ss01;
kernRight = t;
lastChange = "2023-10-19 19:11:31 +0000";
layers = (
{
anchors = (
{
name = bottom;
pos = (143,0);
},
{
name = center;
pos = (143,200);
},
{
name = top;
pos = (143,400);
},
{
name = topright;
pos = (266,574);
}
);
layerId = m01;
shapes = (
{
closed = 1;
nodes = (
(262,280,l),
(262,400,l),
(24,400,l),
(24,280,l)
);
},
{
alignment = -1;
pos = (-6,0);
ref = _part.tstem;
}
);
width = 286;
}
);
},
{
color = 8;
glyphname = u.ss01;
lastChange = "2023-10-19 19:11:31 +0000";
layers = (
{
anchors = (
{
name = bottom;
pos = (239,0);
},
{
name = ogonek;
pos = (430,10);
},
{
name = top;
pos = (239,400);
},
{
name = topright;
pos = (458,400);
}
);
background = {
shapes = (
{
closed = 1;
nodes = (
(24,400,l),
(24,200,ls),
(24,118,o),
(46,42,o),
(82,0,c),
(454,0,l),
(454,400,l),
(281,400,l),
(281,0,l),
(296,0,l),
(235,46,o),
(197,123,o),
(197,200,cs),
(197,400,l)
);
}
);
};
layerId = m01;
shapes = (
{
closed = 1;
nodes = (
(454,0,l),
(454,400,l),
(281,400,l),
(281,0,l),
(307,0,l),
(232,56,o),
(197,121,o),
(197,200,cs),
(197,400,l),
(24,400,l),
(24,200,ls),
(24,118,o),
(46,42,o),
(82,0,c)
);
}
);
width = 478;
}
);
},
{
color = 8;
glyphname = v.ss01;
lastChange = "2023-10-19 19:11:31 +0000";
layers = (
{
anchors = (
{
name = bottom;
pos = (238,0);
},
{
name = top;
pos = (238,400);
}
);
background = {
shapes = (
{
closed = 1;
nodes = (
(220,0,l),
(187,400,l),
(14,400,l),
(47,0,l)
);
},
{
closed = 1;
nodes = (
(279,200,ls),
(279,122,o),
(249,51,o),
(194,0,c),
(405,0,l),
(436,48,o),
(452,116,o),
(452,200,cs),
(452,400,l),
(279,400,l)
);
}
);
};
layerId = m01;
shapes = (
{
closed = 1;
nodes = (
(405,0,l),
(436,48,o),
(452,116,o),
(452,200,cs),
(452,400,l),
(279,400,l),
(279,200,ls),
(279,118,o),
(245,38,o),
(194,0,c)
);
},
{
closed = 1;
nodes = (
(220,0,l),
(187,400,l),
(14,400,l),
(47,0,l)
);
}
);
width = 476;
}
);
},
{
color = 8;
glyphname = w.ss01;
lastChange = "2023-10-19 19:11:31 +0000";
layers = (
{
anchors = (
{
name = bottom;
pos = (342,0);
},
{
name = top;
pos = (342,400);
}
);
background = {
shapes = (
{
closed = 1;
nodes = (
(255,400,o),
(255,330,o),
(255,200,cs),
(255,70,o),
(170,0,o),
(170,0,c),
(381,0,l),
(381,0,o),
(428,60,o),
(428,200,c),
(428,400,l),
(255,400,l)
);
},
{
closed = 1;
nodes = (
(197,0,l),
(197,400,l),
(24,400,l),
(24,0,l)
);
},
{
closed = 1;
nodes = (
(486,400,o),
(486,330,o),
(486,200,cs),
(486,70,o),
(363,0,o),
(363,0,c),
(588,0,l),
(588,0,o),
(659,60,o),
(659,200,c),
(659,400,l),
(486,400,l)
);
}
);
};
layerId = m01;
shapes = (
{
closed = 1;
nodes = (
(588,0,l),
(588,0,o),
(659,60,o),
(659,200,c),
(659,400,l),
(486,400,l),
(486,400,o),
(486,330,o),
(486,200,cs),
(486,125,o),
(436,44,o),
(363,0,c)
);
},
{
closed = 1;
nodes = (
(197,0,l),
(197,400,l),
(24,400,l),
(24,0,l)
);
},
{
closed = 1;
nodes = (
(381,0,l),
(410,42,o),
(428,118,o),
(428,200,c),
(428,400,l),
(255,400,l),
(255,400,o),
(255,330,o),
(255,200,cs),
(255,110,o),
(221,29,o),
(170,0,c)
);
}
);
width = 683;
}
);
},
{
glyphname = x.ss01;
lastChange = "2023-11-10 14:54:17 +0000";
layers = (
{
layerId = m01;
shapes = (
{
closed = 1;
nodes = (
(201,0,l),
(262,150,l),
(270,142,o),
(283,118,o),
(292,90,cs),
(308,40,o),
(302,0,o),
(302,0,c),
(481,0,l),
(481,49,o),
(477,80,o),
(465,113,cs),
(450,154,o),
(425,193,o),
(386,220,c),
(452,400,l),
(283,400,l),
(242,278,l),
(225,298,o),
(218,307,o),
(213,332,cs),
(209,354,o),
(209,376,o),
(213,400,c),
(38,400,l),
(36,367,o),
(39,339,o),
(48,311,cs),
(60,270,o),
(82,233,o),
(113,205,c),
(24,0,l)
);
}
);
width = 505;
}
);
},
{
color = 8;
glyphname = z.ss01;
lastChange = "2023-10-27 15:19:40 +0000";
layers = (
{
anchors = (
{
name = bottom;
pos = (253,0);
},
{
name = bowl;
pos = (572,256);
},
{
name = center;
pos = (253,200);
},
{
name = kleg;
pos = (292,252);
},
{
name = leg;
pos = (172,254);
},
{
name = top;
pos = (253,400);
}
);
background = {
shapes = (
{
closed = 1;
nodes = (
(203,0,l),
(203,0,o),
(190,59,o),
(212,120,cs),
(226,160,o),
(255,198,o),
(294,222,c),
(121,222,l),
(87,198,o),
(55,159,o),
(40,126,cs),
(25,92,o),
(24,54,o),
(24,0,c)
);
},
{
closed = 1;
nodes = (
(294,222,l),
(329,250,o),
(357,271,o),
(372,311,cs),
(382,335,o),
(388,371,o),
(385,400,c),
(212,400,l),
(219,380,o),
(215,344,o),
(208,322,cs),
(193,277,o),
(150,246,o),
(121,222,c)
);
},
{
closed = 1;
nodes = (
(24,400,l),
(24,296,l),
(272,296,l),
(272,400,l)
);
},
{
closed = 1;
nodes = (
(128,104,l),
(128,0,l),
(376,0,l),
(376,104,l)
);
}
);
};
layerId = m01;
shapes = (
{
closed = 1;
nodes = (
(203,0,l),
(203,0,o),
(186,51,o),
(212,121,cs),
(226,159,o),
(250,195,o),
(276,214,c),
(300,231,o),
(332,273,o),
(349,313,cs),
(362,344,o),
(365,371,o),
(362,400,c),
(189,400,l),
(195,382,o),
(195,353,o),
(184,321,cs),
(169,278,o),
(137,239,o),
(103,214,c),
(73,188,o),
(52,158,o),
(40,125,cs),
(29,95,o),
(24,58,o),
(24,0,c)
);
},
{
closed = 1;
nodes = (
(345,0,l),
(345,104,l),
(128,104,l),
(128,0,l)
);
},
{
closed = 1;
nodes = (
(249,296,l),
(249,400,l),
(40,400,l),
(40,296,l)
);
}
);
width = 505;
}
);
},
{
color = 2;
glyphname = x.ss10;
lastChange = "2023-10-27 16:12:45 +0000";
layers = (
{
anchors = (
{
name = bottom;
pos = (253,0);
},
{
name = top;
pos = (253,400);
}
);
background = {
shapes = (
{
closed = 1;
nodes = (
(197,0,l),
(197,0,o),
(197,49,o),
(197,140,cs),
(197,231,o),
(277,280,o),
(277,280,c),
(84,280,ls),
(84,280,o),
(24,238,o),
(24,140,c),
(24,0,l)
);
},
{
closed = 1;
nodes = (
(257,280,l),
(207,400,l),
(34,400,l),
(84,280,l)
);
},
{
closed = 1;
nodes = (
(197,0,l),
(197,0,o),
(197,49,o),
(197,140,cs),
(197,231,o),
(277,280,o),
(277,280,c),
(84,280,ls),
(84,280,o),
(24,238,o),
(24,140,c),
(24,0,l)
);
},
{
closed = 1;
nodes = (
(257,280,l),
(207,400,l),
(34,400,l),
(84,280,l)
);
},
{
closed = 1;
nodes = (
(481,140,l),
(481,238,o),
(421,280,o),
(421,280,cs),
(228,280,l),
(228,280,o),
(308,231,o),
(308,140,cs),
(308,49,o),
(308,0,o),
(308,0,c),
(481,0,l)
);
},
{
closed = 1;
nodes = (
(471,400,l),
(298,400,l),
(248,280,l),
(421,280,l)
);
},
{
closed = 1;
nodes = (
(481,140,l),
(481,238,o),
(421,280,o),
(421,280,cs),
(228,280,l),
(228,280,o),
(308,231,o),
(308,140,cs),
(308,49,o),
(308,0,o),
(308,0,c),
(481,0,l)
);
},
{
closed = 1;
nodes = (
(471,400,l),
(298,400,l),
(248,280,l),
(421,280,l)
);
}
);
};
layerId = m01;
shapes = (
{
closed = 1;
nodes = (
(193,0,l),
(201,103,ls),
(204,148,o),
(223,189,o),
(253,223,c),
(282,189,o),
(302,148,o),
(305,103,cs),
(311,0,l),
(484,0,l),
(478,109,ls),
(475,165,o),
(456,221,o),
(421,243,c),
(471,400,l),
(298,400,l),
(253,254,l),
(207,400,l),
(34,400,l),
(84,243,l),
(49,222,o),
(32,165,o),
(28,108,cs),
(20,0,l)
);
}
);
width = 505;
}
);
},
{
color = 4;
glyphname = zero;
lastChange = "2023-11-13 20:27:26 +0000";
layers = (
{
background = {
shapes = (
{
closed = 1;
nodes = (
(274,0,l),
(230,71,o),
(205,172,o),
(205,277,cs),
(205,393,o),
(231,488,o),
(274,554,c),
(70,554,l),
(46,494,o),
(32,392,o),
(32,277,cs),
(32,164,o),
(46,58,o),
(70,0,c)
);
},
{
closed = 1;
nodes = (
(442,0,l),
(466,64,o),
(480,165,o),
(480,277,cs),
(480,391,o),
(465,498,o),
(442,554,c),
(238,554,l),
(273,498,o),
(307,393,o),
(307,277,cs),
(307,146,o),
(266,40,o),
(238,0,c)
);
}
);
};
layerId = m01;
shapes = (
{
closed = 1;
nodes = (
(461,72,o),
(480,180,o),
(480,276,cs),
(480,372,o),
(461,480,o),
(432,553,c),
(238,554,l),
(282,486,o),
(308,384,o),
(308,277,cs),
(308,170,o),
(282,68,o),
(238,0,c),
(432,-1,l)
);
},
{
closed = 1;
nodes = (
(274,0,l),
(230,68,o),
(204,170,o),
(204,277,cs),
(204,384,o),
(230,486,o),
(274,554,c),
(80,553,l),
(51,480,o),
(32,372,o),
(32,276,cs),
(32,180,o),
(51,72,o),
(80,-1,c)
);
}
);
width = 512;
}
);
unicode = 48;
},
{
color = 4;
glyphname = one;
lastChange = "2023-11-09 16:19:48 +0000";
layers = (
{
layerId = m01;
shapes = (
{
closed = 1;
nodes = (
(205,0,l),
(205,554,l),
(69,554,l),
(43,505,o),
(32,446,o),
(32,367,cs),
(32,0,l)
);
}
);
width = 237;
}
);
unicode = 49;
},
{
color = 2;
glyphname = two;
lastChange = "2023-11-15 15:01:12 +0000";
layers = (
{
layerId = m01;
shapes = (
{
closed = 1;
nodes = (
(411,0,l),
(411,120,l),
(226,120,l),
(319,167,o),
(385,266,o),
(385,366,cs),
(385,454,o),
(353,507,o),
(279,554,c),
(58,554,l),
(162,504,o),
(215,439,o),
(215,364,cs),
(215,277,o),
(147,188,o),
(27,120,c),
(27,0,l)
);
}
);
width = 438;
}
);
unicode = 50;
},
{
color = 2;
glyphname = three;
lastChange = "2023-11-15 15:10:09 +0000";
layers = (
{
background = {
shapes = (
{
closed = 1;
nodes = (
(174,286,l),
(232,182,o),
(232,85,o),
(98,0,c),
(332,0,l),
(415,85,o),
(393,198,o),
(358,286,c)
);
},
{
closed = 1;
nodes = (
(358,286,l),
(366,307,o),
(396,351,o),
(396,432,cs),
(396,482,o),
(361,554,o),
(361,554,c),
(156,554,l),
(164,554,o),
(223,490,o),
(223,434,cs),
(223,373,o),
(217,335,o),
(175,286,c)
);
},
{
closed = 0;
nodes = (
(157,460,ls),
(157,522,o),
(216,554,o),
(224,554,c)
);
},
{
closed = 1;
nodes = (
(172,369,l),
(157,401,o),
(157,426,o),
(157,460,cs),
(157,522,o),
(216,554,o),
(224,554,c),
(35,554,l),
(35,554,o),
(1,519,o),
(1,446,cs),
(1,416,o),
(4,391,o),
(10,369,c)
);
}
);
};
layerId = m01;
shapes = (
{
closed = 1;
nodes = (
(356,296,l),
(390,331,o),
(411,390,o),
(411,430,cs),
(411,474,o),
(395,528,o),
(360,554,c),
(180,554,l),
(221,534,o),
(254,482,o),
(254,436,cs),
(254,388,o),
(227,338,o),
(166,296,c)
);
},
{
closed = 1;
nodes = (
(333,0,l),
(404,53,o),
(416,124,o),
(416,162,cs),
(416,223,o),
(385,267,o),
(356,296,c),
(166,296,l),
(209,269,o),
(236,230,o),
(236,175,cs),
(236,109,o),
(176,43,o),
(110,0,c)
);
},
{
closed = 1;
nodes = (
(191,359,l),
(176,386,o),
(173,424,o),
(173,442,cs),
(173,508,o),
(235,554,o),
(243,554,c),
(52,554,l),
(52,554,o),
(18,509,o),
(18,436,cs),
(18,406,o),
(21,381,o),
(27,359,c)
);
}
);
width = 425;
}
);
unicode = 51;
},
{
color = 2;
glyphname = four;
lastChange = "2023-11-15 15:04:54 +0000";
layers = (
{
layerId = m01;
shapes = (
{
closed = 1;
nodes = (
(299,152,l),
(299,152,o),
(200,222,o),
(200,352,cs),
(200,482,o),
(299,552,o),
(299,552,c),
(90,552,l),
(90,552,o),
(32,492,o),
(32,352,cs),
(32,212,o),
(90,152,o),
(90,152,c)
);
},
{
closed = 1;
nodes = (
(439,0,l),
(439,434,l),
(271,434,l),
(271,0,l)
);
}
);
width = 471;
}
);
unicode = 52;
},
{
color = 3;
glyphname = five;
lastChange = "2023-11-15 13:35:11 +0000";
layers = (
{
layerId = m01;
shapes = (
{
closed = 1;
nodes = (
(354,0,l),
(397,55,o),
(417,111,o),
(417,180,cs),
(417,247,o),
(407,288,o),
(382,323,c),
(202,323,l),
(236,264,o),
(246,229,o),
(246,178,cs),
(246,119,o),
(199,38,o),
(143,0,c)
);
},
{
closed = 1;
nodes = (
(206,315,l),
(206,434,l),
(395,434,l),
(395,554,l),
(41,554,l),
(41,315,l)
);
}
);
width = 451;
}
);
unicode = 53;
},
{
color = 2;
glyphname = six;
lastChange = "2023-11-15 13:43:46 +0000";
layers = (
{
layerId = m01;
shapes = (
{
closed = 1;
nodes = (
(261,0,l),
(261,0,o),
(203,72,o),
(203,204,cs),
(203,405,o),
(317,553,o),
(317,553,cs),
(107,553,l),
(107,553,o),
(40,401,o),
(33,221,cs),
(27,67,o),
(62,0,o),
(62,0,c)
);
},
{
closed = 1;
nodes = (
(424,0,l),
(424,0,o),
(449,51,o),
(449,173,cs),
(449,277,o),
(405,346,o),
(405,346,c),
(196,346,l),
(197,325,l),
(256,298,o),
(281,222,o),
(281,153,cs),
(281,49,o),
(225,0,o),
(225,0,c)
);
},
{
closed = 1;
nodes = (
(261,0,l),
(261,0,o),
(203,72,o),
(203,204,cs),
(203,405,o),
(317,553,o),
(317,553,cs),
(107,553,l),
(107,553,o),
(40,401,o),
(33,221,cs),
(27,67,o),
(62,0,o),
(62,0,c)
);
},
{
closed = 1;
nodes = (
(424,0,l),
(424,0,o),
(449,51,o),
(449,173,cs),
(449,277,o),
(405,346,o),
(405,346,c),
(196,346,l),
(197,325,l),
(256,298,o),
(281,222,o),
(281,153,cs),
(281,49,o),
(225,0,o),
(225,0,c)
);
}
);
width = 469;
}
);
unicode = 54;
},
{
color = 2;
glyphname = seven;
lastChange = "2023-11-15 14:37:45 +0000";
layers = (
{
anchors = (
{
name = bowl;
pos = (154,0);
},
{
name = connector;
pos = (321,190);
},
{
name = jot;
pos = (215,400);
}
);
background = {
shapes = (
{
closed = 1;
nodes = (
(266,0,l),
(292,40,o),
(385,247,o),
(385,434,cs),
(385,554,l),
(212,554,l),
(213,434,ls),
(215,235,o),
(86,40,o),
(59,0,c)
);
},
{
closed = 1;
nodes = (
(385,434,l),
(385,554,l),
(0,554,l),
(0,434,l)
);
}
);
};
layerId = m01;
shapes = (
{
closed = 1;
nodes = (
(219,517,o),
(226,483,o),
(226,450,cs),
(226,172,o),
(82,-1,o),
(82,-1,cs),
(282,0,l),
(282,0,o),
(388,192,o),
(388,447,cs),
(388,476,o),
(387,523,o),
(385,554,c),
(215,554,l)
);
},
{
closed = 1;
nodes = (
(385,434,l),
(385,554,l),
(10,553,l),
(10,433,l)
);
}
);
width = 417;
}
);
unicode = 55;
},
{
color = 2;
glyphname = eight;
lastChange = "2023-11-15 15:00:28 +0000";
layers = (
{
anchors = (
{
name = oconnect;
pos = (207,0);
}
);
background = {
shapes = (
{
closed = 1;
nodes = (
(19,0,l),
(491,0,l),
(442,554,l),
(68,554,l)
);
}
);
};
layerId = m01;
shapes = (
{
closed = 1;
nodes = (
(439,-1,l),
(472,44,o),
(479,88,o),
(479,118,cs),
(479,184,o),
(448,237,o),
(395,278,cs),
(350,312,o),
(226,370,o),
(226,443,cs),
(226,523,o),
(316,548,o),
(323,554,c),
(94,554,l),
(94,554,o),
(58,517,o),
(58,444,cs),
(58,373,o),
(98,313,o),
(167,268,cs),
(207,241,o),
(295,198,o),
(295,123,cs),
(295,57,o),
(253,20,o),
(230,-1,c)
);
},
{
closed = 1;
nodes = (
(269,20,o),
(208,41,o),
(208,134,cs),
(208,179,o),
(223,230,o),
(236,254,c),
(56,254,l),
(47,234,o),
(32,176,o),
(32,134,cs),
(32,67,o),
(50,28,o),
(71,0,c),
(304,-1,l)
);
},
{
closed = 1;
nodes = (
(431,326,l),
(447,357,o),
(454,400,o),
(454,432,cs),
(454,521,o),
(411,554,o),
(411,554,c),
(200,554,l),
(228,554,o),
(297,521,o),
(297,435,cs),
(297,392,o),
(281,364,o),
(250,326,c)
);
}
);
width = 515;
}
);
unicode = 56;
},
{
color = 2;
glyphname = nine;
lastChange = "2023-11-13 20:31:46 +0000";
layers = (
{
background = {
shapes = (
{
closed = 1;
nodes = (
(384,0,l),
(384,0,o),
(442,169,o),
(449,330,cs),
(455,472,o),
(419,554,o),
(419,554,c),
(220,554,l),
(220,554,o),
(278,460,o),
(278,338,cs),
(278,175,o),
(174,0,o),
(174,0,c)
);
},
{
closed = 1;
nodes = (
(273,154,l),
(273,154,o),
(200,220,o),
(200,359,cs),
(200,481,o),
(256,554,o),
(256,554,c),
(57,554,l),
(57,554,o),
(32,487,o),
(32,365,cs),
(32,207,o),
(74,154,o),
(74,154,c)
);
}
);
};
layerId = m01;
shapes = (
{
closed = 1;
nodes = (
(372,0,l),
(372,0,o),
(439,152,o),
(446,332,cs),
(452,486,o),
(411,553,o),
(411,553,c),
(218,553,l),
(218,553,o),
(276,481,o),
(276,349,cs),
(276,148,o),
(162,0,o),
(162,0,cs)
);
},
{
closed = 1;
nodes = (
(283,207,l),
(282,228,l),
(223,255,o),
(198,331,o),
(198,400,cs),
(198,504,o),
(254,553,o),
(254,553,c),
(67,553,l),
(67,553,o),
(30,502,o),
(30,380,cs),
(30,276,o),
(74,207,o),
(74,207,c)
);
}
);
width = 482;
}
);
unicode = 57;
},
{
color = 8;
glyphname = one.osf;
lastChange = "2023-10-19 19:11:49 +0000";
layers = (
{
layerId = m01;
shapes = (
{
closed = 1;
nodes = (
(197,0,l),
(197,400,l),
(24,400,l),
(24,0,l)
);
}
);
width = 221;
}
);
},
{
color = 8;
glyphname = two.osf;
lastChange = "2023-10-27 15:19:40 +0000";
layers = (
{
anchors = (
{
name = _connector;
pos = (-405,112);
},
{
name = connector;
pos = (752,400);
}
);
guides = (
{
pos = (230,245);
}
);
layerId = m01;
shapes = (
{
closed = 1;
nodes = (
(415,174,l),
(424,192,o),
(441,232,o),
(441,281,cs),
(441,352,o),
(406,400,o),
(406,400,c),
(201,400,l),
(237,385,o),
(268,328,o),
(268,280,cs),
(268,236,o),
(242,189,o),
(230,174,c)
);
},
{
closed = 1;
nodes = (
(197,0,l),
(197,15,l),
(197,133,o),
(254,185,o),
(254,185,cs),
(71,185,l),
(63,176,o),
(24,135,o),
(24,14,c),
(24,0,l)
);
},
{
closed = 1;
nodes = (
(433,0,l),
(433,120,l),
(163,120,l),
(163,0,l)
);
},
{
closed = 1;
nodes = (
(194,245,l),
(194,259,l),
(194,349,o),
(252,400,o),
(252,400,c),
(51,400,l),
(51,400,o),
(21,339,o),
(21,259,c),
(21,245,l)
);
}
);
width = 462;
}
);
},
{
color = 8;
glyphname = three.osf;
lastChange = "2023-10-27 15:19:40 +0000";
layers = (
{
layerId = m01;
shapes = (
{
closed = 1;
nodes = (
(414,120,l),
(426,152,o),
(443,203,o),
(443,251,cs),
(443,320,o),
(408,399,o),
(408,399,c),
(203,399,l),
(211,399,o),
(270,330,o),
(270,253,cs),
(270,210,o),
(252,169,o),
(231,120,c)
);
},
{
closed = 1;
nodes = (
(261,-154,l),
(253,-154,o),
(194,-111,o),
(194,-31,cs),
(194,3,o),
(194,39,o),
(209,71,c),
(31,71,l),
(25,49,o),
(22,24,o),
(22,-6,cs),
(22,-107,o),
(56,-154,o),
(56,-154,c)
);
},
{
closed = 1;
nodes = (
(408,-154,l),
(408,-154,o),
(443,-76,o),
(443,-7,cs),
(443,44,o),
(424,94,o),
(414,120,c),
(231,120,l),
(248,81,o),
(270,39,o),
(270,-8,cs),
(270,-85,o),
(211,-154,o),
(203,-154,c)
);
},
{
closed = 1;
nodes = (
(209,174,l),
(194,206,o),
(194,242,o),
(194,276,cs),
(194,356,o),
(253,399,o),
(261,399,c),
(56,399,l),
(56,399,o),
(22,352,o),
(22,251,cs),
(22,221,o),
(25,196,o),
(31,174,c)
);
}
);
width = 464;
}
);
},
{
color = 8;
glyphname = four.osf;
lastChange = "2023-10-27 13:55:42 +0000";
layers = (
{
layerId = m01;
shapes = (
{
closed = 1;
nodes = (
(304,-2,l),
(304,-2,o),
(205,68,o),
(205,198,cs),
(205,328,o),
(304,398,o),
(304,398,c),
(90,398,l),
(90,398,o),
(32,338,o),
(32,198,cs),
(32,58,o),
(90,-2,o),
(90,-2,c)
);
},
{
closed = 1;
nodes = (
(449,-154,l),
(449,280,l),
(276,280,l),
(276,-154,l)
);
}
);
width = 473;
}
);
},
{
color = 8;
glyphname = five.osf;
lastChange = "2023-10-27 15:19:40 +0000";
layers = (
{
layerId = m01;
shapes = (
{
closed = 1;
nodes = (
(404,-154,l),
(404,-154,o),
(447,-65,o),
(447,18,cs),
(447,118,o),
(385,183,o),
(379,198,c),
(179,198,l),
(186,181,o),
(274,117,o),
(274,13,cs),
(274,-72,o),
(215,-154,o),
(207,-154,c)
);
},
{
closed = 1;
nodes = (
(265,-154,l),
(257,-154,o),
(198,-111,o),
(198,-31,cs),
(198,3,o),
(198,39,o),
(213,71,c),
(35,71,l),
(29,49,o),
(26,24,o),
(26,-6,cs),
(26,-107,o),
(60,-154,o),
(60,-154,c)
);
},
{
closed = 1;
nodes = (
(198,144,l),
(198,400,l),
(25,400,l),
(25,144,l)
);
},
{
closed = 1;
nodes = (
(432,280,l),
(432,400,l),
(25,400,l),
(25,280,l)
);
}
);
width = 456;
}
);
},
{
color = 8;
glyphname = six.osf;
lastChange = "2023-10-27 15:19:40 +0000";
layers = (
{
layerId = m01;
shapes = (
{
closed = 1;
nodes = (
(262,0,l),
(262,0,o),
(204,94,o),
(204,216,cs),
(204,379,o),
(308,554,o),
(308,554,c),
(98,554,l),
(98,554,o),
(41,401,o),
(34,221,cs),
(28,67,o),
(63,0,o),
(63,0,c)
);
},
{
closed = 1;
nodes = (
(425,0,l),
(425,0,o),
(450,67,o),
(450,189,cs),
(450,347,o),
(408,400,o),
(408,400,c),
(209,400,l),
(209,400,o),
(282,334,o),
(282,195,cs),
(282,74,o),
(226,0,o),
(226,0,c)
);
}
);
width = 482;
}
);
metricRight = o;
},
{
color = 8;
glyphname = seven.osf;
lastChange = "2023-10-19 19:11:49 +0000";
layers = (
{
anchors = (
{
name = bowl;
pos = (178,0);
},
{
name = connector;
pos = (345,190);
},
{
name = jot;
pos = (239,400);
}
);
layerId = m01;
shapes = (
{
closed = 1;
nodes = (
(290,-154,l),
(316,-114,o),
(409,93,o),
(409,280,cs),
(409,400,l),
(236,400,l),
(237,280,ls),
(239,81,o),
(110,-114,o),
(83,-154,c)
);
},
{
closed = 1;
nodes = (
(409,280,l),
(409,400,l),
(24,400,l),
(24,280,l)
);
}
);
width = 433;
}
);
},
{
color = 8;
glyphname = eight.osf;
lastChange = "2023-10-27 15:19:40 +0000";
layers = (
{
anchors = (
{
name = oconnect;
pos = (184,0);
}
);
layerId = m01;
shapes = (
{
closed = 1;
nodes = (
(423,273,l),
(431,294,o),
(452,349,o),
(452,407,cs),
(452,482,o),
(417,552,o),
(417,552,c),
(212,552,l),
(220,552,o),
(279,490,o),
(279,407,cs),
(279,351,o),
(252,301,o),
(240,273,c)
);
},
{
closed = 1;
nodes = (
(272,-1,l),
(264,-1,o),
(205,61,o),
(205,141,cs),
(205,193,o),
(230,241,o),
(244,273,c),
(61,273,l),
(51,246,o),
(32,195,o),
(32,142,cs),
(32,70,o),
(67,-1,o),
(67,-1,c)
);
},
{
closed = 1;
nodes = (
(417,-1,l),
(417,-1,o),
(452,71,o),
(452,143,cs),
(452,198,o),
(432,250,o),
(423,273,c),
(240,273,l),
(254,241,o),
(279,193,o),
(279,141,cs),
(279,61,o),
(220,-1,o),
(212,-1,c)
);
},
{
closed = 1;
nodes = (
(244,273,l),
(232,301,o),
(205,351,o),
(205,407,cs),
(205,490,o),
(264,552,o),
(272,552,c),
(67,552,l),
(67,552,o),
(32,481,o),
(32,406,cs),
(32,346,o),
(55,288,o),
(61,273,c)
);
}
);
width = 484;
}
);
metricLeft = o;
metricRight = o;
},
{
color = 8;
glyphname = nine.osf;
lastChange = "2023-10-27 15:19:41 +0000";
layers = (
{
layerId = m01;
shapes = (
{
closed = 1;
nodes = (
(384,-154,l),
(384,-154,o),
(440,0,o),
(448,171,cs),
(455,325,o),
(419,400,o),
(419,400,c),
(220,400,l),
(220,400,o),
(278,307,o),
(278,184,cs),
(278,20,o),
(174,-154,o),
(174,-154,c)
);
},
{
closed = 1;
nodes = (
(273,0,l),
(273,0,o),
(200,66,o),
(200,205,cs),
(200,327,o),
(256,400,o),
(256,400,c),
(57,400,l),
(57,400,o),
(32,331,o),
(32,210,cs),
(32,53,o),
(74,0,o),
(74,0,c)
);
}
);
width = 481;
}
);
metricLeft = o;
metricRight = o;
},
{
color = 8;
glyphname = one.ss01;
lastChange = "2023-10-19 19:11:49 +0000";
layers = (
{
layerId = m01;
shapes = (
{
closed = 1;
nodes = (
(205,0,l),
(205,554,l),
(59,554,l),
(33,505,o),
(32,425,o),
(32,367,cs),
(32,0,l)
);
}
);
width = 241;
}
);
},
{
glyphname = two.ss01;
lastChange = "2023-11-15 15:03:57 +0000";
layers = (
{
anchors = (
{
name = bottom;
pos = (165,0);
},
{
name = top;
pos = (165,554);
}
);
layerId = m01;
shapes = (
{
closed = 1;
nodes = (
(44,0,l),
(434,0,l),
(434,120,l),
(236,120,l),
(303,157,o),
(432,238,o),
(432,374,cs),
(432,462,o),
(411,509,o),
(376,554,c),
(80,554,l),
(80,554,o),
(46,519,o),
(46,446,cs),
(46,416,o),
(49,391,o),
(55,369,c),
(217,369,l),
(202,396,o),
(199,434,o),
(199,452,cs),
(199,486,o),
(215,511,o),
(232,529,c),
(258,501,o),
(273,470,o),
(273,380,cs),
(273,270,o),
(105,162,o),
(44,120,c)
);
}
);
width = 440;
}
);
},
{
glyphname = three.ss01;
lastChange = "2023-11-10 11:18:16 +0000";
layers = (
{
layerId = m01;
shapes = (
{
closed = 1;
nodes = (
(424,274,l),
(432,295,o),
(453,352,o),
(453,405,cs),
(453,473,o),
(418,553,o),
(418,553,c),
(213,553,l),
(221,553,o),
(280,484,o),
(280,407,cs),
(280,364,o),
(262,323,o),
(241,274,c)
);
},
{
closed = 1;
nodes = (
(271,0,l),
(263,0,o),
(204,43,o),
(204,123,cs),
(204,157,o),
(204,193,o),
(219,225,c),
(41,225,l),
(35,203,o),
(32,178,o),
(32,147,cs),
(32,42,o),
(66,0,o),
(66,0,c)
);
},
{
closed = 1;
nodes = (
(418,0,l),
(418,0,o),
(453,79,o),
(453,148,cs),
(453,198,o),
(434,248,o),
(424,274,c),
(241,274,l),
(258,235,o),
(280,193,o),
(280,146,cs),
(280,69,o),
(221,0,o),
(213,0,c)
);
},
{
closed = 1;
nodes = (
(219,328,l),
(204,360,o),
(204,396,o),
(204,430,cs),
(204,510,o),
(263,553,o),
(271,553,c),
(66,553,l),
(66,553,o),
(32,505,o),
(32,405,cs),
(32,375,o),
(35,350,o),
(41,328,c)
);
}
);
width = 485;
}
);
},
{
glyphname = five.ss01;
lastChange = "2023-11-15 14:16:23 +0000";
layers = (
{
background = {
shapes = (
{
closed = 1;
nodes = (
(261,0,l),
(261,0,o),
(203,72,o),
(203,204,cs),
(203,405,o),
(317,553,o),
(317,553,cs),
(107,553,l),
(107,553,o),
(40,401,o),
(33,221,cs),
(27,67,o),
(62,0,o),
(62,0,c)
);
},
{
closed = 1;
nodes = (
(424,0,l),
(424,0,o),
(449,51,o),
(449,173,cs),
(449,277,o),
(405,346,o),
(405,346,c),
(196,346,l),
(197,325,l),
(256,298,o),
(281,222,o),
(281,153,cs),
(281,49,o),
(225,0,o),
(225,0,c)
);
}
);
};
layerId = m01;
shapes = (
{
closed = 1;
nodes = (
(158,362,l),
(158,362,o),
(274,326,o),
(274,199,cs),
(274,85,o),
(151,5,o),
(145,0,c),
(366,0,l),
(399,28,o),
(447,94,o),
(447,197,cs),
(447,306,o),
(371,362,o),
(371,362,c)
);
},
{
closed = 1;
nodes = (
(81,554,l),
(40,315,l),
(190,315,l),
(239,554,l)
);
},
{
closed = 1;
nodes = (
(142,434,l),
(382,434,l),
(382,554,l),
(142,554,l)
);
}
);
width = 481;
}
);
},
{
glyphname = one.ss02;
lastChange = "2023-10-20 12:56:41 +0000";
layers = (
{
layerId = m01;
shapes = (
{
closed = 1;
nodes = (
(422,0,l),
(422,554,l),
(249,554,l),
(249,0,l)
);
},
{
closed = 1;
nodes = (
(76,554,l),
(50,511,o),
(32,387,o),
(32,342,c),
(205,342,l),
(205,391,o),
(234,517,o),
(278,554,c)
);
}
);
width = 458;
}
);
},
{
glyphname = three.ss02;
lastChange = "2023-11-14 15:47:13 +0000";
layers = (
{
layerId = m01;
shapes = (
{
closed = 1;
nodes = (
(237,0,l),
(269,29,o),
(294,82,o),
(294,142,cs),
(294,207,o),
(245,263,o),
(212,282,c),
(249,305,o),
(281,368,o),
(281,421,cs),
(281,484,o),
(261,522,o),
(224,554,c),
(39,554,l),
(65,534,o),
(115,495,o),
(115,415,cs),
(115,329,o),
(42,299,o),
(20,282,c),
(49,267,o),
(118,207,o),
(118,149,cs),
(118,69,o),
(61,24,o),
(22,-1,c)
);
}
);
width = 314;
}
);
},
{
glyphname = five.ss02;
lastChange = "2023-11-15 14:22:25 +0000";
layers = (
{
layerId = m01;
shapes = (
{
closed = 1;
nodes = (
(158,326,l),
(158,326,o),
(274,293,o),
(274,181,cs),
(274,67,o),
(151,5,o),
(145,0,c),
(366,0,l),
(399,28,o),
(447,78,o),
(447,181,cs),
(447,290,o),
(371,326,o),
(371,326,c)
);
},
{
closed = 1;
nodes = (
(142,434,l),
(382,434,l),
(382,554,l),
(142,554,l)
);
},
{
closed = 1;
nodes = (
(187,316,l),
(187,430,o),
(285,549,o),
(291,554,c),
(118,554,l),
(85,526,o),
(37,421,o),
(37,318,cs),
(37,317,o),
(37,317,o),
(37,316,c)
);
}
);
width = 484;
}
);
},
{
glyphname = one.ss03;
lastChange = "2023-10-20 13:24:24 +0000";
layers = (
{
layerId = m01;
shapes = (
{
closed = 1;
nodes = (
(422,0,l),
(422,554,l),
(249,554,l),
(249,0,l)
);
},
{
closed = 1;
nodes = (
(212,342,l),
(238,385,o),
(256,509,o),
(256,554,c),
(94,554,l),
(94,505,o),
(55,384,o),
(21,342,c)
);
}
);
width = 454;
}
);
},
{
color = 2;
glyphname = asterisk_node;
lastChange = "2023-10-25 15:18:19 +0000";
layers = (
{
layerId = m01;
shapes = (
{
closed = 1;
nodes = (
(418,337,l),
(408,413,o),
(379,463,o),
(328,519,c),
(160,519,l),
(197,470,o),
(224,407,o),
(236,337,c)
);
}
);
width = 600;
}
);
},
{
glyphname = slash_part;
lastChange = "2023-11-15 15:32:52 +0000";
layers = (
{
anchors = (
{
name = _center;
pos = (186,278);
}
);
layerId = m01;
shapes = (
{
closed = 1;
nodes = (
(227,624,l),
(98,-70,l),
(144,-71,l),
(273,623,l)
);
}
);
width = 371;
}
);
},
{
color = 2;
glyphname = period;
lastChange = "2023-10-19 19:11:56 +0000";
layers = (
{
background = {
shapes = (
{
closed = 1;
nodes = (
(197,0,l),
(197,120,l),
(24,120,l),
(24,0,l)
);
}
);
};
layerId = m01;
shapes = (
{
closed = 1;
nodes = (
(182,0,l),
(195,13,o),
(203,32,o),
(203,66,cs),
(203,87,o),
(200,108,o),
(194,130,c),
(40,130,l),
(27,117,o),
(19,97,o),
(19,64,cs),
(19,43,o),
(22,22,o),
(28,0,c)
);
}
);
width = 227;
}
);
unicode = 46;
},
{
color = 2;
glyphname = comma;
lastChange = "2023-10-27 15:19:40 +0000";
layers = (
{
background = {
shapes = (
{
closed = 1;
nodes = (
(195,13,o),
(203,32,o),
(203,66,cs),
(203,87,o),
(200,108,o),
(194,130,c),
(40,130,l),
(27,117,o),
(19,97,o),
(19,64,cs),
(19,43,o),
(22,22,o),
(28,0,c),
(182,0,l)
);
}
);
};
layerId = m01;
shapes = (
{
closed = 1;
nodes = (
(152,-85,l),
(184,-42,o),
(203,11,o),
(203,64,cs),
(203,100,o),
(194,119,o),
(182,130,c),
(24,130,l),
(24,0,l),
(64,0,l),
(64,-85,l)
);
}
);
width = 227;
}
);
unicode = 44;
},
{
color = 2;
glyphname = colon;
lastChange = "2023-10-19 19:11:56 +0000";
layers = (
{
background = {
shapes = (
{
closed = 1;
nodes = (
(195,13,o),
(203,32,o),
(203,66,cs),
(203,87,o),
(200,108,o),
(194,130,c),
(40,130,l),
(27,117,o),
(19,97,o),
(19,64,cs),
(19,43,o),
(22,22,o),
(28,0,c),
(182,0,l)
);
},
{
closed = 1;
nodes = (
(195,347,o),
(203,366,o),
(203,400,cs),
(203,421,o),
(200,442,o),
(194,464,c),
(40,464,l),
(27,451,o),
(19,431,o),
(19,398,cs),
(19,377,o),
(22,356,o),
(28,334,c),
(182,334,l)
);
}
);
};
layerId = m01;
shapes = (
{
ref = period;
},
{
pos = (0,334);
ref = period;
}
);
width = 221;
}
);
unicode = 58;
},
{
color = 2;
glyphname = semicolon;
lastChange = "2023-10-19 19:11:56 +0000";
layers = (
{
background = {
shapes = (
{
closed = 1;
nodes = (
(195,13,o),
(203,32,o),
(203,66,cs),
(203,87,o),
(200,108,o),
(194,130,c),
(40,130,l),
(27,117,o),
(19,97,o),
(19,64,cs),
(19,43,o),
(22,22,o),
(28,0,c),
(182,0,l)
);
},
{
closed = 1;
nodes = (
(195,347,o),
(203,366,o),
(203,400,cs),
(203,421,o),
(200,442,o),
(194,464,c),
(40,464,l),
(27,451,o),
(19,431,o),
(19,398,cs),
(19,377,o),
(22,356,o),
(28,334,c),
(182,334,l)
);
}
);
};
layerId = m01;
shapes = (
{
pos = (0,334);
ref = period;
},
{
ref = comma;
}
);
width = 227;
}
);
unicode = 59;
},
{
color = 2;
glyphname = exclam;
lastChange = "2023-10-20 13:45:03 +0000";
layers = (
{
layerId = m01;
shapes = (
{
closed = 1;
nodes = (
(182,0,l),
(195,13,o),
(203,32,o),
(203,66,cs),
(203,87,o),
(200,108,o),
(194,130,c),
(40,130,l),
(27,117,o),
(19,97,o),
(19,64,cs),
(19,43,o),
(22,22,o),
(28,0,c)
);
},
{
closed = 1;
nodes = (
(182,174,l),
(198,574,l),
(25,574,l),
(41,174,l)
);
}
);
width = 227;
}
);
unicode = 33;
},
{
color = 2;
glyphname = question;
lastChange = "2023-10-27 15:19:40 +0000";
layers = (
{
background = {
shapes = (
{
closed = 1;
nodes = (
(273,166,l),
(273,201,o),
(253,218,o),
(342,281,cs),
(405,326,o),
(414,414,o),
(414,452,cs),
(414,500,o),
(402,525,o),
(382,554,c),
(191,554,l),
(224,518,o),
(236,495,o),
(236,463,cs),
(236,434,o),
(234,375,o),
(177,334,cs),
(91,271,o),
(87,212,o),
(87,166,c)
);
},
{
closed = 1;
nodes = (
(187,405,l),
(185,416,o),
(185,424,o),
(185,437,cs),
(185,470,o),
(207,519,o),
(237,554,c),
(51,554,l),
(27,526,o),
(10,481,o),
(10,446,cs),
(10,427,o),
(11,416,o),
(13,405,c)
);
}
);
};
layerId = m01;
shapes = (
{
pos = (67,0);
ref = period;
},
{
closed = 1;
nodes = (
(261,166,l),
(261,189,o),
(261,221,o),
(321,279,cs),
(408,364,o),
(402,414,o),
(402,452,cs),
(402,500,o),
(390,525,o),
(370,554,c),
(191,554,l),
(228,513,o),
(236,495,o),
(236,457,cs),
(236,434,o),
(233,385,o),
(175,332,cs),
(99,262,o),
(87,213,o),
(87,166,c)
);
},
{
closed = 1;
nodes = (
(187,405,l),
(185,416,o),
(185,424,o),
(185,437,cs),
(185,470,o),
(207,519,o),
(237,554,c),
(51,554,l),
(27,526,o),
(10,481,o),
(10,446,cs),
(10,427,o),
(11,416,o),
(13,405,c)
);
}
);
width = 424;
}
);
unicode = 63;
},
{
color = 2;
glyphname = bullet;
lastChange = "2023-10-27 15:19:40 +0000";
layers = (
{
layerId = m01;
shapes = (
{
closed = 1;
nodes = (
(235,204,l),
(251,222,o),
(260,247,o),
(260,295,cs),
(260,323,o),
(257,352,o),
(249,382,c),
(65,382,l),
(49,364,o),
(40,338,o),
(40,291,cs),
(40,264,o),
(43,234,o),
(51,204,c)
);
}
);
width = 300;
}
);
unicode = 8226;
},
{
color = 2;
glyphname = numbersign;
lastChange = "2023-10-20 14:10:08 +0000";
layers = (
{
background = {
shapes = (
{
closed = 1;
nodes = (
(542,0,l),
(542,554,l),
(369,554,l),
(369,0,l)
);
},
{
closed = 1;
nodes = (
(253,0,l),
(253,554,l),
(80,554,l),
(80,0,l)
);
},
{
closed = 1;
nodes = (
(513,234,l),
(513,354,l),
(102,354,l),
(102,234,l)
);
}
);
};
layerId = m01;
shapes = (
{
closed = 1;
nodes = (
(222,0,l),
(363,566,l),
(237,566,l),
(96,0,l)
);
},
{
closed = 1;
nodes = (
(222,0,l),
(363,566,l),
(237,566,l),
(96,0,l)
);
},
{
closed = 1;
nodes = (
(439,0,l),
(580,566,l),
(513,566,l),
(372,0,l)
);
},
{
closed = 1;
nodes = (
(439,0,l),
(580,566,l),
(454,566,l),
(313,0,l)
);
},
{
closed = 1;
nodes = (
(611,320,l),
(625,417,l),
(92,417,l),
(79,320,l)
);
},
{
closed = 1;
nodes = (
(583,150,l),
(596,247,l),
(61,247,l),
(48,150,l)
);
}
);
width = 673;
}
);
unicode = 35;
},
{
color = 2;
glyphname = slash;
lastChange = "2023-10-20 14:03:21 +0000";
layers = (
{
layerId = m01;
shapes = (
{
closed = 1;
nodes = (
(219,-20,l),
(360,574,l),
(195,574,l),
(54,-20,l)
);
}
);
width = 414;
}
);
unicode = 47;
},
{
color = 2;
glyphname = hyphen;
lastChange = "2023-11-15 12:21:29 +0000";
layers = (
{
layerId = m01;
shapes = (
{
closed = 1;
nodes = (
(316,170,l),
(316,288,l),
(48,288,l),
(48,170,l)
);
}
);
width = 364;
}
);
unicode = 45;
},
{
color = 2;
glyphname = endash;
lastChange = "2023-10-20 14:45:06 +0000";
layers = (
{
layerId = m01;
shapes = (
{
closed = 1;
nodes = (
(550,176,l),
(550,282,l),
(48,282,l),
(48,176,l)
);
}
);
width = 598;
}
);
metricLeft = hyphen;
metricRight = hyphen;
unicode = 8211;
},
{
color = 2;
glyphname = emdash;
lastChange = "2023-10-20 14:44:55 +0000";
layers = (
{
layerId = m01;
shapes = (
{
closed = 1;
nodes = (
(698,176,l),
(698,282,l),
(48,282,l),
(48,176,l)
);
}
);
width = 746;
}
);
metricLeft = hyphen;
metricRight = hyphen;
unicode = 8212;
},
{
color = 2;
glyphname = underscore;
lastChange = "2023-10-20 14:46:35 +0000";
layers = (
{
layerId = m01;
shapes = (
{
closed = 1;
nodes = (
(497,-116,l),
(497,-40,l),
(-5,-40,l),
(-5,-116,l)
);
}
);
width = 492;
}
);
unicode = 95;
},
{
color = 2;
glyphname = parenleft;
lastChange = "2023-10-27 15:19:40 +0000";
layers = (
{
layerId = m01;
shapes = (
{
closed = 1;
nodes = (
(296,-39,l),
(247,25,o),
(213,140,o),
(213,279,cs),
(213,417,o),
(247,533,o),
(294,592,c),
(128,592,l),
(95,538,o),
(73,420,o),
(73,284,cs),
(73,130,o),
(101,13,o),
(140,-39,c)
);
}
);
width = 356;
}
);
unicode = 40;
},
{
color = 2;
glyphname = braceleft;
lastChange = "2023-10-27 15:19:40 +0000";
layers = (
{
background = {
shapes = (
{
pos = (3,0);
ref = parenleft;
}
);
};
guides = (
{
locked = 1;
pos = (268,277);
}
);
layerId = m01;
shapes = (
{
closed = 1;
nodes = (
(213,277,l),
(213,309,o),
(227,335,o),
(262,369,cs),
(296,402,o),
(321,462,o),
(321,509,cs),
(321,542,o),
(334,574,o),
(354,592,c),
(209,592,l),
(198,579,o),
(193,555,o),
(193,518,cs),
(193,477,o),
(178,443,o),
(144,412,cs),
(94,366,o),
(72,325,o),
(72,277,c)
);
},
{
closed = 1;
nodes = (
(72,229,o),
(94,188,o),
(144,142,cs),
(178,111,o),
(193,77,o),
(193,36,cs),
(193,-1,o),
(198,-25,o),
(209,-38,c),
(354,-38,l),
(334,-20,o),
(321,12,o),
(321,45,cs),
(321,92,o),
(296,152,o),
(262,185,cs),
(227,219,o),
(213,245,o),
(213,277,c),
(72,277,l)
);
}
);
width = 426;
}
);
unicode = 123;
},
{
color = 2;
glyphname = bracketleft;
lastChange = "2023-10-25 15:22:51 +0000";
layers = (
{
layerId = m01;
shapes = (
{
closed = 1;
nodes = (
(194,-38,l),
(194,592,l),
(60,592,l),
(60,-38,l)
);
},
{
closed = 1;
nodes = (
(304,-38,l),
(304,82,l),
(60,82,l),
(60,-38,l)
);
},
{
closed = 1;
nodes = (
(304,472,l),
(304,592,l),
(60,592,l),
(60,472,l)
);
}
);
width = 364;
}
);
unicode = 91;
},
{
color = 2;
glyphname = quoteleft;
lastChange = "2023-10-27 15:19:40 +0000";
layers = (
{
layerId = m01;
shapes = (
{
closed = 1;
nodes = (
(203,342,l),
(203,472,l),
(163,472,l),
(163,574,l),
(75,574,l),
(43,531,o),
(24,461,o),
(24,408,cs),
(24,372,o),
(33,353,o),
(45,342,c)
);
}
);
width = 227;
}
);
unicode = 8216;
},
{
color = 2;
glyphname = guilsinglright;
lastChange = "2023-10-20 15:28:17 +0000";
layers = (
{
layerId = m01;
shapes = (
{
closed = 1;
nodes = (
(238,318,l),
(48,403,l),
(48,262,l),
(238,176,l)
);
},
{
closed = 1;
nodes = (
(238,85,l),
(238,227,l),
(48,141,l),
(48,0,l)
);
}
);
width = 286;
}
);
unicode = 8250;
},
{
color = 2;
glyphname = quotedbl;
lastChange = "2023-10-20 15:22:36 +0000";
layers = (
{
layerId = m01;
shapes = (
{
closed = 1;
nodes = (
(156,349,l),
(175,574,l),
(24,574,l),
(43,349,l)
);
},
{
closed = 1;
nodes = (
(344,349,l),
(363,574,l),
(212,574,l),
(231,349,l)
);
}
);
width = 387;
}
);
unicode = 34;
},
{
color = 2;
glyphname = quotesingle;
lastChange = "2023-10-19 19:11:56 +0000";
layers = (
{
layerId = m01;
shapes = (
{
closed = 1;
nodes = (
(152,195,l),
(184,238,o),
(203,293,o),
(203,339,cs),
(203,370,o),
(195,388,o),
(182,400,c),
(24,400,l),
(24,280,l),
(64,280,l),
(64,195,l)
);
}
);
width = 221;
}
);
unicode = 39;
},
{
color = 4;
glyphname = degree;
lastChange = "2023-10-27 15:19:40 +0000";
layers = (
{
layerId = m01;
shapes = (
{
closed = 1;
nodes = (
(230,353,o),
(284,403,o),
(284,473,cs),
(284,543,o),
(230,592,o),
(165,592,cs),
(99,592,o),
(45,543,o),
(45,473,cs),
(45,403,o),
(99,353,o),
(165,353,cs)
);
},
{
closed = 1;
nodes = (
(140,424,o),
(118,443,o),
(118,473,cs),
(118,503,o),
(140,521,o),
(165,521,cs),
(189,521,o),
(211,503,o),
(211,473,cs),
(211,443,o),
(190,424,o),
(165,424,cs)
);
}
);
width = 329;
}
);
unicode = 176;
},
{
color = 0;
glyphname = bar;
lastChange = "2023-10-27 15:12:37 +0000";
layers = (
{
layerId = m01;
shapes = (
{
closed = 1;
nodes = (
(262,-270,l),
(262,574,l),
(125,574,l),
(125,-270,l)
);
}
);
width = 387;
}
);
unicode = 124;
},
{
color = 2;
glyphname = rbelowcomb;
lastChange = "2023-10-27 15:06:53 +0000";
layers = (
{
anchors = (
{
name = _bottom;
pos = (98,0);
},
{
name = bottom;
pos = (98,-280);
}
);
layerId = m01;
shapes = (
{
closed = 1;
nodes = (
(122,-280,l),
(122,-142,ls),
(122,-100,o),
(142,-64,o),
(181,-32,c),
(50,-32,l),
(28,-55,o),
(15,-102,o),
(15,-156,cs),
(15,-280,l)
);
}
);
width = 184;
}
);
unicode = 7626;
},
{
color = 2;
glyphname = dieresiscomb;
lastChange = "2023-10-27 15:19:40 +0000";
layers = (
{
anchors = (
{
name = _top;
pos = (196,400);
},
{
name = top;
pos = (196,554);
}
);
layerId = m01;
shapes = (
{
closed = 1;
nodes = (
(163,424,l),
(175,437,o),
(182,456,o),
(182,490,cs),
(182,511,o),
(179,532,o),
(174,554,c),
(37,554,l),
(26,541,o),
(19,522,o),
(19,487,cs),
(19,468,o),
(21,446,o),
(27,424,c)
);
},
{
closed = 1;
nodes = (
(354,424,l),
(366,437,o),
(373,456,o),
(373,490,cs),
(373,511,o),
(370,532,o),
(365,554,c),
(228,554,l),
(217,541,o),
(210,522,o),
(210,487,cs),
(210,468,o),
(212,446,o),
(218,424,c)
);
}
);
width = 397;
}
);
metricLeft = period;
metricRight = period;
unicode = 776;
},
{
color = 2;
glyphname = dotaccentcomb;
lastChange = "2023-10-27 15:19:40 +0000";
layers = (
{
anchors = (
{
name = _top;
pos = (101,400);
},
{
name = top;
pos = (101,554);
}
);
layerId = m01;
shapes = (
{
closed = 1;
nodes = (
(163,424,l),
(175,437,o),
(182,456,o),
(182,490,cs),
(182,511,o),
(179,532,o),
(174,554,c),
(37,554,l),
(26,541,o),
(19,522,o),
(19,487,cs),
(19,468,o),
(21,446,o),
(27,424,c)
);
}
);
width = 206;
}
);
metricLeft = period;
metricRight = period;
unicode = 775;
},
{
color = 2;
glyphname = gravecomb;
lastChange = "2023-10-19 18:27:40 +0000";
layers = (
{
anchors = (
{
name = _top;
pos = (140,400);
},
{
name = top;
pos = (140,554);
}
);
layerId = m01;
shapes = (
{
closed = 1;
nodes = (
(260,432,l),
(192,554,l),
(19,554,l),
(87,432,l)
);
}
);
width = 284;
}
);
metricLeft = period;
metricRight = period;
unicode = 768;
},
{
color = 2;
glyphname = acutecomb;
lastChange = "2023-10-25 16:16:54 +0000";
layers = (
{
anchors = (
{
name = _top;
pos = (105,400);
},
{
name = top;
pos = (105,554);
}
);
layerId = m01;
shapes = (
{
closed = 1;
nodes = (
(197,432,l),
(265,554,l),
(72,554,l),
(4,432,l)
);
}
);
width = 289;
}
);
unicode = 769;
},
{
color = 3;
glyphname = hungarumlautcomb;
lastChange = "2023-10-27 15:20:52 +0000";
layers = (
{
anchors = (
{
name = _top;
pos = (176,400);
},
{
name = top;
pos = (176,554);
}
);
layerId = m01;
shapes = (
{
closed = 1;
nodes = (
(146,432,l),
(223,554,l),
(96,554,l),
(19,432,l)
);
},
{
closed = 1;
nodes = (
(315,432,l),
(392,554,l),
(265,554,l),
(188,432,l)
);
}
);
width = 416;
}
);
metricLeft = period;
metricRight = period;
unicode = 779;
},
{
color = 2;
glyphname = caroncomb.alt;
lastChange = "2023-10-19 18:27:40 +0000";
layers = (
{
anchors = (
{
name = _topright;
pos = (84,554);
}
);
layerId = m01;
shapes = (
{
closed = 1;
nodes = (
(127,348,l),
(192,554,l),
(84,554,l),
(19,348,l)
);
}
);
width = 216;
}
);
metricLeft = period;
metricRight = period;
},
{
color = 2;
glyphname = circumflexcomb;
lastChange = "2023-10-19 18:27:40 +0000";
layers = (
{
anchors = (
{
name = _top;
pos = (221,400);
},
{
name = top;
pos = (221,554);
}
);
layerId = m01;
shapes = (
{
closed = 1;
nodes = (
(422,432,l),
(337,554,l),
(195,554,l),
(281,432,l)
);
},
{
closed = 1;
nodes = (
(160,432,l),
(246,554,l),
(104,554,l),
(19,432,l)
);
}
);
width = 446;
}
);
metricLeft = period;
metricRight = period;
unicode = 770;
},
{
color = 2;
glyphname = caroncomb;
lastChange = "2023-10-19 18:27:40 +0000";
layers = (
{
anchors = (
{
name = _top;
pos = (221,400);
},
{
name = top;
pos = (221,554);
}
);
layerId = m01;
shapes = (
{
closed = 1;
nodes = (
(337,432,l),
(422,554,l),
(281,554,l),
(195,432,l)
);
},
{
closed = 1;
nodes = (
(246,432,l),
(160,554,l),
(19,554,l),
(104,432,l)
);
}
);
width = 446;
}
);
metricLeft = period;
metricRight = period;
unicode = 780;
},
{
color = 2;
glyphname = brevecomb;
lastChange = "2023-10-25 16:19:09 +0000";
layers = (
{
anchors = (
{
name = _top;
pos = (171,400);
},
{
name = top;
pos = (171,554);
}
);
layerId = m01;
shapes = (
{
closed = 1;
nodes = (
(290,432,l),
(314,465,o),
(327,520,o),
(322,554,c),
(200,554,l),
(205,517,o),
(182,470,o),
(161,432,c)
);
},
{
closed = 1;
nodes = (
(181,432,l),
(160,470,o),
(137,517,o),
(142,554,c),
(20,554,l),
(15,520,o),
(28,465,o),
(52,432,c)
);
}
);
width = 347;
}
);
metricLeft = period;
metricRight = period;
unicode = 774;
},
{
color = 2;
glyphname = ringcomb;
lastChange = "2023-10-19 18:27:40 +0000";
layers = (
{
anchors = (
{
name = _top;
pos = (139,400);
},
{
name = top;
pos = (139,554);
}
);
layerId = m01;
shapes = (
{
closed = 1;
nodes = (
(236,433,l),
(250,445,o),
(259,463,o),
(259,495,cs),
(259,514,o),
(256,534,o),
(249,554,c),
(42,554,l),
(28,542,o),
(19,524,o),
(19,493,cs),
(19,473,o),
(22,454,o),
(29,433,c)
);
},
{
closed = 1;
nodes = (
(112,463,o),
(106,477,o),
(106,494,cs),
(106,511,o),
(112,525,o),
(139,525,cs),
(166,525,o),
(172,511,o),
(172,494,cs),
(172,477,o),
(166,463,o),
(139,463,cs)
);
}
);
width = 283;
}
);
metricLeft = period;
metricRight = period;
unicode = 778;
},
{
color = 2;
glyphname = tildecomb;
lastChange = "2023-10-27 15:19:40 +0000";
layers = (
{
anchors = (
{
name = _top;
pos = (149,400);
},
{
name = top;
pos = (149,570);
}
);
layerId = m01;
shapes = (
{
closed = 1;
nodes = (
(41,451,o),
(59,464,o),
(89,464,cs),
(138,464,o),
(158,430,o),
(208,430,cs),
(237,430,o),
(258,442,o),
(279,467,c),
(279,570,l),
(255,546,o),
(239,535,o),
(210,535,cs),
(160,535,o),
(139,568,o),
(90,568,cs),
(61,568,o),
(40,556,o),
(19,531,c),
(19,428,l)
);
}
);
width = 303;
}
);
metricLeft = period;
metricRight = period;
unicode = 771;
},
{
color = 1;
glyphname = macroncomb;
lastChange = "2023-10-19 18:27:44 +0000";
layers = (
{
anchors = (
{
name = _top;
pos = (184,400);
},
{
name = top;
pos = (184,554);
}
);
layerId = m01;
shapes = (
{
closed = 1;
nodes = (
(349,444,l),
(349,554,l),
(19,554,l),
(19,444,l)
);
}
);
width = 373;
}
);
metricLeft = period;
metricRight = period;
unicode = 772;
},
{
color = 1;
glyphname = verticallineabovecomb;
lastChange = "2023-10-19 18:27:44 +0000";
layers = (
{
anchors = (
{
name = _top;
pos = (74,400);
},
{
name = top;
pos = (74,764);
}
);
layerId = m01;
shapes = (
{
closed = 1;
nodes = (
(129,434,l),
(129,764,l),
(19,764,l),
(19,434,l)
);
}
);
width = 153;
}
);
metricLeft = period;
metricRight = period;
unicode = 781;
},
{
color = 1;
glyphname = dblgravecomb;
lastChange = "2023-10-19 18:27:46 +0000";
layers = (
{
anchors = (
{
name = _top;
pos = (217,400);
},
{
name = top;
pos = (217,554);
}
);
layerId = m01;
shapes = (
{
closed = 1;
nodes = (
(226,432,l),
(168,554,l),
(19,554,l),
(78,432,l)
);
},
{
closed = 1;
nodes = (
(415,432,l),
(356,554,l),
(208,554,l),
(266,432,l)
);
}
);
width = 439;
}
);
metricLeft = period;
metricRight = period;
unicode = 783;
},
{
color = 1;
glyphname = candraBinducomb;
lastChange = "2023-10-27 15:19:40 +0000";
layers = (
{
anchors = (
{
name = _top;
pos = (197,400);
},
{
name = top;
pos = (197,651);
}
);
layerId = m01;
shapes = (
{
closed = 1;
nodes = (
(316,432,l),
(340,461,o),
(353,510,o),
(348,541,c),
(226,541,l),
(230,513,o),
(215,479,o),
(197,449,c),
(179,479,o),
(164,513,o),
(168,541,c),
(46,541,l),
(41,510,o),
(54,461,o),
(78,432,c)
);
},
{
closed = 1;
nodes = (
(241,572,l),
(241,651,l),
(153,651,l),
(153,572,l)
);
}
);
width = 394;
}
);
unicode = 784;
},
{
color = 1;
glyphname = breveinvertedcomb;
lastChange = "2023-10-27 15:11:07 +0000";
layers = (
{
anchors = (
{
name = _top;
pos = (171,400);
},
{
name = top;
pos = (171,554);
}
);
layerId = m01;
shapes = (
{
closed = 1;
nodes = (
(322,432,l),
(327,466,o),
(314,521,o),
(290,554,c),
(171,554,l),
(192,516,o),
(205,469,o),
(200,432,c)
);
},
{
closed = 1;
nodes = (
(142,432,l),
(137,469,o),
(150,516,o),
(171,554,c),
(52,554,l),
(28,521,o),
(15,466,o),
(20,432,c)
);
}
);
width = 347;
}
);
unicode = 785;
},
{
color = 2;
glyphname = commaturnedabovecomb;
lastChange = "2023-10-27 15:19:40 +0000";
layers = (
{
anchors = (
{
name = _top;
pos = (114,400);
},
{
name = top;
pos = (114,666);
}
);
layerId = m01;
shapes = (
{
closed = 1;
nodes = (
(203,451,l),
(203,581,l),
(163,581,l),
(163,666,l),
(75,666,l),
(43,623,o),
(24,570,o),
(24,517,cs),
(24,481,o),
(33,462,o),
(45,451,c)
);
}
);
width = 227;
}
);
unicode = 786;
},
{
color = 2;
glyphname = commaabovecomb;
lastChange = "2023-10-27 15:19:40 +0000";
layers = (
{
anchors = (
{
name = _top;
pos = (114,400);
},
{
name = top;
pos = (114,664);
}
);
layerId = m01;
shapes = (
{
closed = 1;
nodes = (
(152,449,l),
(184,492,o),
(203,545,o),
(203,598,cs),
(203,634,o),
(194,653,o),
(182,664,c),
(24,664,l),
(24,534,l),
(64,534,l),
(64,449,l)
);
}
);
width = 227;
}
);
unicode = 787;
},
{
color = 2;
glyphname = dotbelowcomb;
lastChange = "2023-10-19 18:33:38 +0000";
layers = (
{
anchors = (
{
name = _bottom;
pos = (111,0);
},
{
name = bottom;
pos = (111,-210);
}
);
layerId = m01;
shapes = (
{
closed = 1;
nodes = (
(182,-210,l),
(195,-197,o),
(203,-178,o),
(203,-144,cs),
(203,-123,o),
(200,-102,o),
(194,-80,c),
(40,-80,l),
(27,-93,o),
(19,-113,o),
(19,-146,cs),
(19,-167,o),
(22,-188,o),
(28,-210,c)
);
}
);
width = 227;
}
);
unicode = 803;
},
{
color = 1;
glyphname = ringbelowcomb;
lastChange = "2023-10-27 15:11:07 +0000";
layers = (
{
anchors = (
{
name = _bottom;
pos = (139,0);
},
{
name = bottom;
pos = (139,-167);
}
);
layerId = m01;
shapes = (
{
closed = 1;
nodes = (
(236,-167,l),
(250,-155,o),
(259,-137,o),
(259,-105,cs),
(259,-86,o),
(256,-66,o),
(249,-46,c),
(42,-46,l),
(28,-58,o),
(19,-76,o),
(19,-107,cs),
(19,-127,o),
(22,-146,o),
(29,-167,c)
);
},
{
closed = 1;
nodes = (
(112,-137,o),
(106,-123,o),
(106,-106,cs),
(106,-89,o),
(112,-75,o),
(139,-75,cs),
(166,-75,o),
(172,-89,o),
(172,-106,cs),
(172,-123,o),
(166,-137,o),
(139,-137,cs)
);
}
);
width = 283;
}
);
metricLeft = period;
metricRight = period;
unicode = 805;
},
{
color = 2;
glyphname = commaaccentcomb;
lastChange = "2023-10-27 15:19:40 +0000";
layers = (
{
anchors = (
{
name = _bottom;
pos = (114,0);
},
{
name = bottom;
pos = (114,-249);
}
);
layerId = m01;
shapes = (
{
closed = 1;
nodes = (
(152,-249,l),
(184,-206,o),
(203,-153,o),
(203,-100,cs),
(203,-64,o),
(194,-45,o),
(182,-34,c),
(24,-34,l),
(24,-164,l),
(64,-164,l),
(64,-249,l)
);
}
);
width = 227;
}
);
unicode = 806;
},
{
color = 2;
glyphname = cedillacomb;
lastChange = "2023-10-25 16:18:28 +0000";
layers = (
{
anchors = (
{
name = _bottom;
pos = (182,0);
},
{
name = bottom;
pos = (182,-169);
}
);
layerId = m01;
shapes = (
{
closed = 1;
nodes = (
(226,-169,l),
(278,-133,o),
(296,-56,o),
(263,0,c),
(98,0,l),
(131,-61,o),
(110,-126,o),
(54,-169,c)
);
}
);
width = 347;
}
);
unicode = 807;
},
{
color = 1;
glyphname = ogonekcomb;
lastChange = "2023-10-27 15:11:07 +0000";
layers = (
{
anchors = (
{
name = _ogonek;
pos = (236,0);
}
);
layerId = m01;
shapes = (
{
closed = 1;
nodes = (
(280,-169,l),
(224,-126,o),
(203,-61,o),
(236,0,c),
(101,0,l),
(68,-56,o),
(86,-133,o),
(138,-169,c)
);
}
);
width = 347;
}
);
unicode = 808;
},
{
color = 1;
glyphname = verticallinebelowcomb;
lastChange = "2023-10-27 15:11:07 +0000";
layers = (
{
anchors = (
{
name = _bottom;
pos = (161,0);
},
{
name = bottom;
pos = (161,-270);
}
);
layerId = m01;
shapes = (
{
closed = 1;
nodes = (
(204,-270,l),
(204,-35,l),
(118,-35,l),
(118,-270,l)
);
}
);
width = 300;
}
);
unicode = 809;
},
{
color = 2;
glyphname = circumflexbelowcomb;
lastChange = "2023-10-19 18:35:09 +0000";
layers = (
{
anchors = (
{
name = _bottom;
pos = (221,0);
},
{
name = bottom;
pos = (221,-158);
}
);
layerId = m01;
shapes = (
{
closed = 1;
nodes = (
(422,-158,l),
(337,-36,l),
(195,-36,l),
(281,-158,l)
);
},
{
closed = 1;
nodes = (
(160,-158,l),
(246,-36,l),
(104,-36,l),
(19,-158,l)
);
}
);
width = 446;
}
);
unicode = 813;
},
{
color = 1;
glyphname = breveinvertedbelowcomb;
lastChange = "2023-10-27 15:11:07 +0000";
layers = (
{
anchors = (
{
name = _bottom;
pos = (171,0);
},
{
name = bottom;
pos = (171,-160);
}
);
layerId = m01;
shapes = (
{
closed = 1;
nodes = (
(322,-160,l),
(327,-126,o),
(314,-71,o),
(290,-38,c),
(161,-38,l),
(182,-76,o),
(205,-123,o),
(200,-160,c)
);
},
{
closed = 1;
nodes = (
(142,-160,l),
(137,-123,o),
(160,-76,o),
(181,-38,c),
(52,-38,l),
(28,-71,o),
(15,-126,o),
(20,-160,c)
);
}
);
width = 347;
}
);
unicode = 815;
},
{
color = 1;
glyphname = lowlinecomb;
lastChange = "2023-10-27 15:11:07 +0000";
layers = (
{
anchors = (
{
name = _bottom;
pos = (211,0);
},
{
name = bottom;
pos = (211,-166);
}
);
layerId = m01;
shapes = (
{
closed = 1;
nodes = (
(377,-166,l),
(377,-104,l),
(45,-104,l),
(45,-166,l)
);
}
);
width = 422;
}
);
unicode = 818;
},
{
color = 1;
glyphname = tildeoverlaycomb;
lastChange = "2023-10-27 15:19:40 +0000";
layers = (
{
anchors = (
{
name = _center;
pos = (149,199);
}
);
layerId = m01;
shapes = (
{
closed = 1;
nodes = (
(41,151,o),
(59,164,o),
(89,164,cs),
(138,164,o),
(158,130,o),
(208,130,cs),
(237,130,o),
(258,142,o),
(279,167,c),
(279,270,l),
(255,246,o),
(239,235,o),
(210,235,cs),
(160,235,o),
(139,268,o),
(90,268,cs),
(61,268,o),
(40,256,o),
(19,231,c),
(19,128,l)
);
}
);
width = 303;
}
);
unicode = 820;
},
{
color = 1;
glyphname = dotaboverightcomb;
lastChange = "2023-10-27 15:19:40 +0000";
layers = (
{
layerId = m01;
shapes = (
{
closed = 1;
nodes = (
(163,424,l),
(175,437,o),
(182,456,o),
(182,490,cs),
(182,511,o),
(179,532,o),
(174,554,c),
(37,554,l),
(26,541,o),
(19,522,o),
(19,487,cs),
(19,468,o),
(21,446,o),
(27,424,c)
);
}
);
width = 206;
}
);
unicode = 856;
},
{
glyphname = strokeshortcomb.case;
lastChange = "2023-11-15 12:27:32 +0000";
layers = (
{
anchors = (
{
name = _stroke;
pos = (178,153);
}
);
layerId = m01;
shapes = (
{
closed = 1;
nodes = (
(312,124,l),
(312,183,l),
(44,183,l),
(44,124,l)
);
}
);
width = 356;
}
);
},
{
color = 9;
export = 0;
glyphname = _part.aleftbowl;
lastChange = "2023-10-27 15:19:40 +0000";
layers = (
{
anchors = (
{
name = _connector;
pos = (294,0);
}
);
layerId = m01;
shapes = (
{
closed = 1;
nodes = (
(294,0,l),
(294,0,o),
(197,37,o),
(197,134,cs),
(197,218,o),
(270,280,o),
(270,280,c),
(68,280,l),
(68,280,o),
(24,208,o),
(24,133,cs),
(24,48,o),
(80,0,o),
(80,0,c)
);
}
);
width = 458;
}
);
},
{
color = 9;
export = 0;
glyphname = _part.angledstem;
lastChange = "2023-10-19 19:12:11 +0000";
layers = (
{
anchors = (
{
name = leg;
pos = (217,0);
}
);
layerId = m01;
shapes = (
{
closed = 1;
nodes = (
(243,0,l),
(210,400,l),
(37,400,l),
(70,0,l)
);
}
);
width = 488;
}
);
},
{
color = 9;
export = 0;
glyphname = _part.crossbar;
lastChange = "2023-10-19 19:12:11 +0000";
layers = (
{
anchors = (
{
name = _connector;
pos = (28,400);
},
{
name = _crossbar;
pos = (180,400);
}
);
layerId = m01;
shapes = (
{
closed = 1;
nodes = (
(331,280,l),
(331,400,l),
(28,400,l),
(28,280,l)
);
}
);
width = 359;
}
);
},
{
color = 9;
export = 0;
glyphname = _part.curvedstem;
lastChange = "2023-10-19 19:12:11 +0000";
layers = (
{
layerId = m01;
shapes = (
{
closed = 1;
nodes = (
(271,0,l),
(255,24,o),
(201,108,o),
(201,208,c),
(201,554,l),
(28,554,l),
(29,147,ls),
(29,91,o),
(48,25,o),
(64,0,c)
);
}
);
width = 281;
}
);
},
{
color = 9;
export = 0;
glyphname = _part.descendedstem;
lastChange = "2023-10-19 19:12:11 +0000";
layers = (
{
anchors = (
{
name = bowl;
pos = (292,0);
},
{
name = jot;
pos = (353,400);
}
);
layerId = m01;
shapes = (
{
closed = 1;
nodes = (
(403,-154,l),
(419,-129,o),
(439,-63,o),
(439,-7,c),
(439,400,l),
(266,400,l),
(266,54,l),
(266,-46,o),
(212,-130,o),
(196,-154,c)
);
}
);
width = 468;
}
);
},
{
color = 9;
export = 0;
glyphname = _part.farleg;
lastChange = "2023-10-19 19:12:11 +0000";
layers = (
{
anchors = (
{
name = _leg;
pos = (10,400);
}
);
layerId = m01;
shapes = (
{
closed = 1;
nodes = (
(306,0,l),
(306,200,l),
(306,340,o),
(235,400,o),
(235,400,c),
(10,400,l),
(10,400,o),
(133,330,o),
(133,200,cs),
(133,70,o),
(133,0,o),
(133,0,c)
);
}
);
width = 306;
}
);
},
{
color = 9;
export = 0;
glyphname = _part.fstem;
lastChange = "2023-10-19 19:12:11 +0000";
layers = (
{
anchors = (
{
name = connector;
pos = (30,400);
}
);
layerId = m01;
shapes = (
{
closed = 1;
nodes = (
(203,0,l),
(203,400,l),
(203,400,o),
(203,560,o),
(333,630,c),
(160,630,l),
(30,560,o),
(30,450,o),
(30,400,c),
(30,0,l)
);
}
);
width = 363;
}
);
},
{
color = 9;
export = 0;
glyphname = _part.kleg;
lastChange = "2023-10-19 19:12:11 +0000";
layers = (
{
anchors = (
{
name = _kleg;
pos = (178,280);
}
);
background = {
shapes = (
{
closed = 1;
nodes = (
(450,0,l),
(450,140,ls),
(450,238,o),
(371,280,o),
(371,280,cs),
(178,280,l),
(178,280,o),
(277,231,o),
(277,140,cs),
(277,0,l)
);
},
{
closed = 1;
nodes = (
(371,280,l),
(435,400,l),
(262,400,l),
(198,280,l)
);
}
);
};
layerId = m01;
shapes = (
{
closed = 1;
nodes = (
(450,0,l),
(450,140,ls),
(450,209,o),
(408,261,o),
(371,280,c),
(178,280,l),
(228,253,o),
(277,203,o),
(277,140,cs),
(277,0,l)
);
},
{
closed = 1;
nodes = (
(371,280,l),
(435,400,l),
(262,400,l),
(198,280,l)
);
}
);
width = 475;
}
);
},
{
color = 9;
export = 0;
glyphname = _part.lefthalfo;
lastChange = "2023-10-19 19:12:11 +0000";
layers = (
{
anchors = (
{
name = oconnect;
pos = (228,0);
}
);
background = {
shapes = (
{
closed = 1;
nodes = (
(264,0,o),
(195,70,o),
(195,200,cs),
(195,330,o),
(264,400,o),
(264,400,c),
(196,400,o),
(128,400,o),
(60,400,c),
(60,400,o),
(22,340,o),
(22,200,cs),
(22,60,o),
(60,0,o),
(60,0,c),
(264,0,l)
);
}
);
};
layerId = m01;
shapes = (
{
closed = 1;
nodes = (
(264,0,l),
(220,51,o),
(195,124,o),
(195,200,cs),
(195,276,o),
(221,352,o),
(264,400,c),
(60,400,l),
(36,356,o),
(22,283,o),
(22,200,cs),
(22,118,o),
(36,42,o),
(60,0,c)
);
}
);
width = 490;
}
);
},
{
color = 9;
export = 0;
glyphname = _part.leg;
lastChange = "2023-10-19 19:12:11 +0000";
layers = (
{
anchors = (
{
name = _bowl;
pos = (178,400);
},
{
name = _leg;
pos = (172,400);
}
);
background = {
shapes = (
{
closed = 1;
nodes = (
(450,0,l),
(450,200,l),
(450,340,o),
(392,400,o),
(392,400,c),
(178,400,l),
(178,400,o),
(277,330,o),
(277,200,cs),
(277,70,o),
(277,0,o),
(277,0,c)
);
}
);
};
layerId = m01;
shapes = (
{
closed = 1;
nodes = (
(450,0,l),
(450,200,ls),
(450,282,o),
(428,358,o),
(392,400,c),
(178,400,l),
(238,355,o),
(277,277,o),
(277,200,cs),
(277,0,l)
);
}
);
width = 478;
}
);
},
{
color = 9;
export = 0;
glyphname = _part.longstem;
lastChange = "2023-10-19 19:12:11 +0000";
layers = (
{
anchors = (
{
name = bowl;
pos = (168,0);
},
{
name = kleg;
pos = (172,280);
},
{
name = leg;
pos = (170,400);
}
);
layerId = m01;
shapes = (
{
closed = 1;
nodes = (
(197,0,l),
(197,554,l),
(24,554,l),
(24,0,l)
);
}
);
width = 464;
}
);
},
{
color = 9;
export = 0;
glyphname = _part.middleleg;
lastChange = "2023-10-19 19:12:11 +0000";
layers = (
{
anchors = (
{
name = _leg;
pos = (190,400);
},
{
name = leg;
pos = (383,400);
}
);
layerId = m01;
shapes = (
{
closed = 1;
nodes = (
(448,0,l),
(448,200,l),
(448,340,o),
(401,400,o),
(401,400,c),
(190,400,l),
(190,400,o),
(275,330,o),
(275,200,cs),
(275,70,o),
(275,0,o),
(275,0,c)
);
}
);
width = 672;
}
);
},
{
color = 9;
export = 0;
glyphname = _part.normalleftbowl;
lastChange = "2023-10-19 19:12:11 +0000";
layers = (
{
anchors = (
{
name = _bowl;
pos = (298,0);
}
);
layerId = m01;
shapes = (
{
closed = 1;
nodes = (
(298,0,l),
(298,0,o),
(199,70,o),
(199,200,cs),
(199,330,o),
(298,400,o),
(298,400,c),
(84,400,l),
(84,400,o),
(26,340,o),
(26,200,cs),
(26,60,o),
(84,0,o),
(84,0,c)
);
}
);
width = 298;
}
);
},
{
color = 9;
export = 0;
glyphname = _part.normalrightbowl;
lastChange = "2023-10-19 19:12:11 +0000";
layers = (
{
anchors = (
{
name = _bowl;
}
);
layerId = m01;
shapes = (
{
closed = 1;
nodes = (
(214,0,l),
(214,0,o),
(272,60,o),
(272,200,cs),
(272,340,o),
(214,400,o),
(214,400,c),
(0,400,l),
(0,400,o),
(99,330,o),
(99,200,cs),
(99,70,o),
(0,0,o),
(0,0,c)
);
}
);
width = 298;
}
);
},
{
color = 9;
export = 0;
glyphname = _part.rightthalfo;
lastChange = "2023-10-27 15:19:40 +0000";
layers = (
{
anchors = (
{
name = _oconnect;
pos = (234,0);
}
);
background = {
shapes = (
{
closed = 1;
nodes = (
(438,0,l),
(438,0,o),
(476,60,o),
(476,200,cs),
(476,340,o),
(438,400,o),
(438,400,c),
(234,400,l),
(234,400,o),
(303,330,o),
(303,200,cs),
(303,70,o),
(234,0,o),
(234,0,c)
);
}
);
};
layerId = m01;
shapes = (
{
closed = 1;
nodes = (
(438,0,l),
(462,46,o),
(476,119,o),
(476,200,cs),
(476,282,o),
(461,359,o),
(438,400,c),
(234,400,l),
(269,359,o),
(303,290,o),
(303,201,cs),
(303,104,o),
(262,29,o),
(234,0,c)
);
}
);
width = 498;
}
);
},
{
color = 9;
export = 0;
glyphname = _part.s;
lastChange = "2023-10-27 15:19:40 +0000";
layers = (
{
layerId = m01;
shapes = (
{
closed = 1;
nodes = (
(221,0,l),
(221,0,o),
(261,51,o),
(261,119,cs),
(261,198,o),
(206,239,o),
(212,300,cs),
(216,344,o),
(252,400,o),
(252,400,c),
(60,400,l),
(60,400,o),
(20,349,o),
(20,281,cs),
(20,202,o),
(75,161,o),
(69,100,cs),
(65,56,o),
(29,0,o),
(29,0,c)
);
}
);
width = 282;
}
);
},
{
color = 9;
export = 0;
glyphname = _part.shortcurvedstem;
lastChange = "2023-10-19 19:12:11 +0000";
layers = (
{
anchors = (
{
name = connector;
pos = (294,0);
}
);
layerId = m01;
shapes = (
{
closed = 1;
nodes = (
(430,0,l),
(430,253,l),
(430,309,o),
(410,375,o),
(394,400,c),
(187,400,l),
(203,376,o),
(257,292,o),
(257,192,c),
(257,0,l)
);
}
);
width = 458;
}
);
},
{
color = 9;
export = 0;
glyphname = _part.shortstem;
lastChange = "2023-10-19 19:12:11 +0000";
layers = (
{
anchors = (
{
name = jot;
pos = (114,400);
},
{
name = leg;
pos = (174,400);
}
);
layerId = m01;
shapes = (
{
closed = 1;
nodes = (
(201,0,l),
(201,400,l),
(28,400,l),
(28,0,l)
);
}
);
width = 229;
}
);
},
{
color = 9;
export = 0;
glyphname = _part.tittle;
lastChange = "2023-10-19 19:12:11 +0000";
layers = (
{
anchors = (
{
name = _jot;
pos = (116,400);
}
);
layerId = m01;
shapes = (
{
closed = 1;
nodes = (
(203,434,l),
(203,500,l),
(30,500,l),
(30,434,l)
);
}
);
width = 233;
}
);
},
{
color = 9;
export = 0;
glyphname = _part.tstem;
lastChange = "2023-10-19 19:12:11 +0000";
layers = (
{
anchors = (
{
name = crossbar;
pos = (117,400);
}
);
layerId = m01;
shapes = (
{
closed = 1;
nodes = (
(273,0,l),
(246,40,o),
(203,120,o),
(203,270,cs),
(203,500,l),
(30,500,l),
(30,200,ls),
(30,140,o),
(40,40,o),
(66,0,c)
);
}
);
width = 283;
}
);
},
{
color = 9;
export = 0;
glyphname = _part.xleg;
lastChange = "2023-10-19 19:12:11 +0000";
layers = (
{
anchors = (
{
name = _xleg;
pos = (254,280);
},
{
name = xleg;
pos = (263,280);
}
);
layerId = m01;
shapes = (
{
closed = 1;
nodes = (
(203,0,l),
(203,0,o),
(203,49,o),
(203,140,cs),
(203,231,o),
(283,280,o),
(283,280,c),
(90,280,ls),
(90,280,o),
(30,238,o),
(30,140,c),
(30,0,l)
);
},
{
closed = 1;
nodes = (
(263,280,l),
(213,400,l),
(40,400,l),
(90,280,l)
);
}
);
width = 313;
}
);
},
{
color = 9;
export = 0;
glyphname = _part.z;
lastChange = "2023-10-27 15:19:40 +0000";
layers = (
{
layerId = m01;
shapes = (
{
closed = 1;
nodes = (
(262,0,ls),
(262,0,o),
(212,63,o),
(212,104,cs),
(212,145,o),
(262,235,o),
(262,278,cs),
(262,316,o),
(222,400,o),
(222,400,cs),
(30,400,ls),
(30,400,o),
(70,336,o),
(70,297,cs),
(70,254,o),
(20,166,o),
(20,123,cs),
(20,84,o),
(60,0,o),
(60,0,cs)
);
}
);
width = 282;
}
);
},
{
glyphname = strokelong.comb;
lastChange = "2023-11-15 15:30:00 +0000";
layers = (
{
anchors = (
{
name = _center;
pos = (218,296);
}
);
layerId = m01;
shapes = (
{
closed = 1;
nodes = (
(409,266,l),
(409,325,l),
(27,325,l),
(27,266,l)
);
}
);
width = 421;
}
);
},
{
glyphname = strokelongY.comb;
lastChange = "2023-11-15 15:32:00 +0000";
layers = (
{
anchors = (
{
name = _bottom;
pos = (279,0);
},
{
name = _center;
pos = (278,426);
}
);
layerId = m01;
shapes = (
{
closed = 1;
nodes = (
(550,394,l),
(550,453,l),
(10,453,l),
(10,394,l)
);
}
);
width = 560;
}
);
},
{
color = 3;
export = 0;
glyphname = _eng.part;
lastChange = "2023-11-08 15:07:43 +0000";
layers = (
{
anchors = (
{
name = _engpart;
pos = (207,0);
}
);
layerId = m01;
shapes = (
{
closed = 1;
nodes = (
(171,-250,l),
(192,-211,o),
(205,-139,o),
(206,-63,cs),
(207,0,l),
(34,0,l),
(34,-42,ls),
(34,-105,o),
(10,-188,o),
(-27,-250,c)
);
}
);
width = 231;
}
);
},
